<svg xmlns="http://www.w3.org/2000/svg" viewBox="0 0 1475.79 751.28"><defs><style>.cls-1{fill:#fbbd3c;}.cls-2{fill:#1d1d1b;}</style></defs><title>Fichier 3</title><g id="Calque_2" data-name="Calque 2"><g id="Calque_1-2" data-name="Calque 1"><path class="cls-1" d="M274.78,345.59a24.28,24.28,0,0,1,2.45,11.55q0,8.75-2.45,13.47a12.91,12.91,0,0,1-7.69,6.48,159.68,159.68,0,0,1-46.19,8.39q-7,29.06-26.42,46.89t-42.86,17.85q-35.35,0-51.44-27t-16.1-78q0-45.14,11.2-98.15T128,156.82q21.51-37.27,51.26-37.27,16.1,0,25.89,13.82t9.8,35.87a158.48,158.48,0,0,1-10.85,57q-10.84,28.35-36,59.49,23.44,1.75,38.14,19.42t17.5,43.56q16.44-1,39.19-7a15.39,15.39,0,0,1,4.9-.71C270.81,341,273.15,342.56,274.78,345.59ZM172.26,404q8.4-9.11,11.2-26.25a48.18,48.18,0,0,1-16.62-19.24,57,57,0,0,1-5.78-25.19,86.07,86.07,0,0,1,1.4-13.3h-1.05q-14.34,0-24,14.17t-9.62,38q0,19.94,7.53,30.44T153,413.13Q163.85,413.13,172.26,404ZM156,175q-8.22,20.82-15.22,56.51a709.9,709.9,0,0,0-10.5,78q23.1-42.33,36.92-74.7T181,177.29q0-11.21-2.63-17.15t-7.17-5.95Q164.21,154.19,156,175Z"/><path class="cls-1" d="M410.37,374.63c1.75,2.81,2.62,6.65,2.62,11.55q0,14-6.64,21.7-13,15.74-36.57,29a101.36,101.36,0,0,1-50.56,13.3q-36.74,0-57-20t-20.29-54.58a101.2,101.2,0,0,1,10.15-45,83.17,83.17,0,0,1,28.16-33.07A70.88,70.88,0,0,1,321,285.41q20.28,0,32.54,12.07t12.25,32.72q0,24.14-17.32,41.46t-58.61,27.47q8.73,16.1,33.24,16.09,15.75,0,35.86-11a118.52,118.52,0,0,0,34.82-28.86q4.2-4.9,9.45-4.9A8.07,8.07,0,0,1,410.37,374.63ZM293.15,334.74q-8.92,15.06-8.92,36.4v.69q20.64-4.89,32.54-14.69t11.9-22.75q0-6.63-3.68-10.67a12.87,12.87,0,0,0-10-4Q302.08,319.7,293.15,334.74Z"/><path class="cls-1" d="M547.88,374.63c1.75,2.81,2.63,6.65,2.63,11.55q0,14-6.65,21.7-12.95,15.74-36.57,29a101.36,101.36,0,0,1-50.56,13.3q-36.74,0-57-20t-20.3-54.58a101.2,101.2,0,0,1,10.15-45,83.12,83.12,0,0,1,28.17-33.07,70.83,70.83,0,0,1,40.76-12.24q20.29,0,32.54,12.07t12.25,32.72q0,24.14-17.32,41.46t-58.61,27.47q8.75,16.1,33.24,16.09,15.75,0,35.87-11a118.61,118.61,0,0,0,34.81-28.86q4.2-4.9,9.45-4.9A8.07,8.07,0,0,1,547.88,374.63ZM430.66,334.74q-8.93,15.06-8.92,36.4v.69q20.64-4.89,32.54-14.69t11.9-22.75q0-6.63-3.67-10.67a12.89,12.89,0,0,0-10-4Q439.59,319.7,430.66,334.74Z"/><path class="cls-1" d="M559.43,449.52q-9.63-8.4-9.63-18.9a21.56,21.56,0,0,1,6.65-15.75q6.64-6.63,19.6-6.64a77.17,77.17,0,0,1,10.67.87q6.12.88,9.27,1.22a45,45,0,0,0-4-17.14,86.73,86.73,0,0,0-9.27-15.57q-5.61-7.51-10.5-13.12-10.85,20.65-21.52,34.29a255.89,255.89,0,0,1-23.27,25.89q-6.3,6.3-13.3,6.3a11.48,11.48,0,0,1-9.09-4,14.68,14.68,0,0,1-3.5-10A20,20,0,0,1,506.41,404l4.55-5.6Q530.2,374.64,540,359.24a226.18,226.18,0,0,0,12.77-24.14q6.47-14,17-38.14,6.64-15.4,27.64-15.4,9.79,0,13.65,1.75a5.84,5.84,0,0,1,3.85,5.6,25.88,25.88,0,0,1-1.4,6.65,51.22,51.22,0,0,1-3.85,9.09q-6.3,12.6-6.3,21.35,0,5.25,3.67,11.54a129.69,129.69,0,0,0,11.38,15.75,223.43,223.43,0,0,1,17,25,45.45,45.45,0,0,1,5.77,22.57,59.45,59.45,0,0,1-6.82,27.82,55.73,55.73,0,0,1-19.07,21.17,49.88,49.88,0,0,1-28,8Q569,457.91,559.43,449.52Z"/><path class="cls-2" d="M517.25,523.16q0,5.4-8.49,5.4A26.12,26.12,0,0,1,504,528q.88,4.24,1.47,9.41a78.87,78.87,0,0,1,.59,8.53c0,4.93-.81,8.69-2.4,11.29s-3.7,3.91-6.3,3.91c-3.29,0-5.62-2.33-7-7s-2.09-11.68-2.09-21.09a129,129,0,0,1,2.85-26.66q2.83-13.52,7.8-22.39t10.92-8.86a5.67,5.67,0,0,1,5,2.87,14.39,14.39,0,0,1,1.82,7.74q0,16.1-19.24,35.05a116.85,116.85,0,0,0-.69,11.78q0,7.05.48,14.48t1.58,7.43c1.37,0,2.05-2.38,2.05-7.12a72.35,72.35,0,0,0-.72-10.34q-.72-5-1.95-10.55a4.66,4.66,0,0,1,.58-2.25,9.34,9.34,0,0,1,1.61-2.4,2.58,2.58,0,0,1,1.71-1c.92,0,2,0,3.29.14.41,0,.89.07,1.44.07a43.42,43.42,0,0,0,6.09-.48l1.17-.14a10.14,10.14,0,0,1,1.23-.07C516.61,520.28,517.25,521.24,517.25,523.16Zm-11.88-37.11a78.88,78.88,0,0,0-3.59,11.06Q500,504,498.7,511.66a49.87,49.87,0,0,0,8.42-13,32.56,32.56,0,0,0,3-12.63q0-4.17-1.71-4.17Q507.19,481.88,505.37,486.05Z"/><path class="cls-2" d="M548.33,519.32a4.76,4.76,0,0,1,.48,2.26c0,2.19-.66,3.49-2,3.91a31.57,31.57,0,0,1-9,1.64,17.18,17.18,0,0,1-5.13,9.21,12.67,12.67,0,0,1-8.7,3.45,12.2,12.2,0,0,1-7-2,12.6,12.6,0,0,1-4.41-5.27,17,17,0,0,1-1.51-7.12,20.85,20.85,0,0,1,2-9.28,15.61,15.61,0,0,1,5.48-6.37,13.74,13.74,0,0,1,7.73-2.29,10.69,10.69,0,0,1,8.39,3.59,15.48,15.48,0,0,1,3.73,8.87,41.56,41.56,0,0,0,7.67-1.37,4,4,0,0,1,1-.14A1.49,1.49,0,0,1,548.33,519.32Zm-20,11.44a10,10,0,0,0,2.16-5.14,9.42,9.42,0,0,1-3.26-3.76,11.22,11.22,0,0,1-1.12-4.93,11.59,11.59,0,0,1,.2-2.19H526a5.39,5.39,0,0,0-4.56,2.63,13.09,13.09,0,0,0-1.81,7.43,9.55,9.55,0,0,0,1.47,5.75,4.27,4.27,0,0,0,3.46,2A5,5,0,0,0,528.31,530.76Z"/><path class="cls-2" d="M573.15,518a3.57,3.57,0,0,1,1.06,2.63,5.23,5.23,0,0,1-.41,1.92,11.62,11.62,0,0,1-3.08,4.25,6.57,6.57,0,0,1-4.38,1.71,4.37,4.37,0,0,1-3.25-1.37,5.08,5.08,0,0,1-1.34-3.7c0-.86,0-1.8.14-2.81a15,15,0,0,0,.14-1.5,1.25,1.25,0,0,0-.24-.82.79.79,0,0,0-.59-.28c-.64,0-1.5.77-2.6,2.3a33.94,33.94,0,0,0-3.28,6,48.2,48.2,0,0,0-2.67,8,11.09,11.09,0,0,1-1.71,4.38,4,4,0,0,1-3.15,1.09,3.75,3.75,0,0,1-3.67-2.73q-1.07-2.74-1.06-8.77a56,56,0,0,1,2.53-16.91,5.2,5.2,0,0,1,2-2.91,7.2,7.2,0,0,1,3.94-.92,4,4,0,0,1,1.92.34,1.42,1.42,0,0,1,.54,1.3,26.33,26.33,0,0,1-1,4.93c-.46,1.83-.82,3.42-1.1,4.79a49.67,49.67,0,0,0-.68,5.07,38.74,38.74,0,0,1,5.06-9.58,20.07,20.07,0,0,1,5.48-5.28,9.74,9.74,0,0,1,4.86-1.57,4,4,0,0,1,3,1.13,4.66,4.66,0,0,1,1.06,3.32,30.09,30.09,0,0,1-.75,4.93h.61A3.49,3.49,0,0,1,573.15,518Z"/><path class="cls-2" d="M635.93,525a4.24,4.24,0,0,1,.51,2.25,6.28,6.28,0,0,1-1.3,4.25,32.91,32.91,0,0,1-6.23,6,12.44,12.44,0,0,1-7.46,2.26,11.91,11.91,0,0,1-8.49-3,10.43,10.43,0,0,1-3.22-8,4,4,0,0,1,2.74-3.83,12.17,12.17,0,0,0,4.31-2.77,5.25,5.25,0,0,0,1.31-3.6,2.85,2.85,0,0,0-.52-1.85,1.58,1.58,0,0,0-1.27-.61q-1.84,0-4.07,2.67a30.57,30.57,0,0,0-4.14,6.88,48.81,48.81,0,0,0-3,8.66,10.64,10.64,0,0,1-1.75,4.34,3.91,3.91,0,0,1-3.11,1.13,3.43,3.43,0,0,1-3.12-1.54,11.23,11.23,0,0,1-1.33-4.76q-.35-3.21-.34-9.44a118.36,118.36,0,0,1,2.15-22,66,66,0,0,1,6.37-19.2q4.21-7.77,10.1-7.77a6,6,0,0,1,5.1,2.7,11.73,11.73,0,0,1,2,7,30,30,0,0,1-4,14.34q-4.05,7.43-13.15,17.36-.2,3.56-.2,7.32,3.28-8.55,7.53-12.42t7.94-3.87a7.08,7.08,0,0,1,5.51,2.32,8.33,8.33,0,0,1,2.09,5.76,13,13,0,0,1-1.92,6.91,16.48,16.48,0,0,1-6.57,5.62,4.54,4.54,0,0,0,1.68,3,5.23,5.23,0,0,0,3.39,1.12,6.4,6.4,0,0,0,4.1-1.64,45.17,45.17,0,0,0,5.21-5.48,2.4,2.4,0,0,1,1.85-.95A1.57,1.57,0,0,1,635.93,525Zm-26-39.61a60.8,60.8,0,0,0-2.91,9.52,124.9,124.9,0,0,0-2.29,13,49.05,49.05,0,0,0,7-10.88,25.46,25.46,0,0,0,2.78-10.69A9.14,9.14,0,0,0,614,483c-.32-.78-.78-1.16-1.37-1.16C611.8,481.88,610.88,483.05,609.88,485.4Z"/><path class="cls-2" d="M632.85,536.64a15.25,15.25,0,0,1-2-8.35,50.42,50.42,0,0,1,.79-7.9,73.52,73.52,0,0,1,2-9,5.76,5.76,0,0,1,1.65-3,5.23,5.23,0,0,1,3.28-.82c2.33,0,3.49.78,3.49,2.32a53.23,53.23,0,0,1-1.3,8,59.65,59.65,0,0,0-1.64,10.2,7.15,7.15,0,0,0,.55,3.15,1.9,1.9,0,0,0,1.85,1.09,5.15,5.15,0,0,0,3.08-1.71,61.72,61.72,0,0,0,4.93-5.41,2.4,2.4,0,0,1,1.85-.95,1.57,1.57,0,0,1,1.4.82,4.24,4.24,0,0,1,.51,2.25,6.28,6.28,0,0,1-1.3,4.25q-6.78,8.28-12.66,8.28C636.35,539.79,634.19,538.75,632.85,536.64Zm2.7-34.94a4.87,4.87,0,0,1-1.44-3.74,5,5,0,0,1,1.89-4,7,7,0,0,1,4.69-1.61,6.48,6.48,0,0,1,4.1,1.23,4.2,4.2,0,0,1,1.58,3.5,5.58,5.58,0,0,1-1.78,4.34,6.8,6.8,0,0,1-4.73,1.61A6.19,6.19,0,0,1,635.55,501.7Z"/><path class="cls-2" d="M688,525a4.24,4.24,0,0,1,.51,2.25,6.28,6.28,0,0,1-1.3,4.25,33.24,33.24,0,0,1-6.16,5.85,11.32,11.32,0,0,1-6.64,2.43c-3.47,0-6.12-2-8-6.09a19.47,19.47,0,0,1-5,4.86,10,10,0,0,1-5,1.23,8.7,8.7,0,0,1-6.88-3.11,12,12,0,0,1-2.7-8.12,22.56,22.56,0,0,1,2.32-10.16,21,21,0,0,1,6.4-7.67,18.65,18.65,0,0,1,9.14-3.52,86.28,86.28,0,0,1,5-22.7q3.66-9.4,9.62-9.41a5.85,5.85,0,0,1,4.89,2.67q1.95,2.67,1.95,8.08,0,7.66-3.76,17.93a133,133,0,0,1-10.07,21.09,15.18,15.18,0,0,0,1.2,5.68,2.71,2.71,0,0,0,2.36,1.71,5.87,5.87,0,0,0,3.77-1.64,49.46,49.46,0,0,0,5.13-5.48,2.43,2.43,0,0,1,1.85-.95A1.6,1.6,0,0,1,688,525Zm-26.6,6.81a19.89,19.89,0,0,0,3.28-3.94,46.21,46.21,0,0,1-.68-8.28c0-1.1,0-2.88.14-5.34a11.46,11.46,0,0,0-6.27,5,15.55,15.55,0,0,0-2.5,8.59q0,5,3.43,5A4.18,4.18,0,0,0,661.43,531.82Zm14.51-45.39a83.27,83.27,0,0,0-2.22,12.08q-.93,7.47-1.34,15.61,7.67-16.69,7.67-26.83a14.64,14.64,0,0,0-.44-4.05c-.3-.95-.66-1.43-1.07-1.43Q677.25,481.81,675.94,486.43Z"/><path class="cls-2" d="M690.28,539.66a4.86,4.86,0,0,1-1.88-3.7,4.25,4.25,0,0,1,1.3-3.08,5.2,5.2,0,0,1,3.84-1.3,15.48,15.48,0,0,1,2.08.17l1.82.24a8.85,8.85,0,0,0-.79-3.35,16.44,16.44,0,0,0-1.81-3c-.73-1-1.42-1.84-2.06-2.57a44.15,44.15,0,0,1-4.21,6.71A50.56,50.56,0,0,1,684,534.8a3.67,3.67,0,0,1-2.6,1.23,2.24,2.24,0,0,1-1.78-.79,2.84,2.84,0,0,1-.69-2,3.89,3.89,0,0,1,1-2.53l.89-1.1a88.47,88.47,0,0,0,5.69-7.67,43,43,0,0,0,2.49-4.72q1.28-2.73,3.32-7.46,1.31-3,5.41-3a7.14,7.14,0,0,1,2.67.34,1.14,1.14,0,0,1,.75,1.09,5,5,0,0,1-.27,1.3,9.38,9.38,0,0,1-.75,1.78,9.82,9.82,0,0,0-1.23,4.18,4.56,4.56,0,0,0,.72,2.26,24.89,24.89,0,0,0,2.22,3.08,44,44,0,0,1,3.32,4.89,9,9,0,0,1,1.13,4.42,11.5,11.5,0,0,1-1.34,5.44,10.89,10.89,0,0,1-3.73,4.15,9.79,9.79,0,0,1-5.47,1.57A8.08,8.08,0,0,1,690.28,539.66Z"/><circle class="cls-1" cx="22.81" cy="321.5" r="22.81"/><circle class="cls-1" cx="22.81" cy="413.42" r="22.81"/><path class="cls-1" d="M676.43,430.43a336.3,336.3,0,0,0,161.1,56.44c25.44,2,52.08,1.39,76.29-7.54,20.82-7.68,39.54-21.83,47.49-43.13,6.57-17.61,6.24-39.26-3.95-55.49A42.94,42.94,0,0,0,906,363.37c-20.24,7.34-36.24,26.75-39.11,48.15-3.16,23.56,8.9,46.74,25.47,62.71,19.55,18.84,45.27,28.31,71.75,32.33,30.58,4.64,61.93,3.59,92.77,3.86,65.79.58,131.72,1.16,197.47-1.76,31-1.38,62-4,92.46-10.32,27.17-5.64,54.92-13.83,78.61-28.67,19.76-12.38,37.63-30.81,42.56-54.31,4.11-19.62.12-42.21-14-57.06-13.88-14.56-35.13-17.71-52.81-8.45-18,9.42-30.55,28.56-34.9,48.06-10.71,48,33.27,83.73,72.62,100.32a258.08,258.08,0,0,0,33.88,11.45c3.12.84,4.44-4,1.33-4.82-40.6-10.84-89.4-32.65-102.39-76.68-5.7-19.31.32-40.82,12.12-56.63,11-14.71,29.15-26,48-20.9,19.63,5.3,30.76,24.63,32.46,43.91,2,22.42-7.84,42.5-24,57.62-18.13,16.93-41.79,26.8-65.23,33.88-28.07,8.47-57.17,12.94-86.33,15.43s-58.67,3.18-88,3.71c-30.8.56-61.61.67-92.41.56q-45.43-.17-90.88-.72c-28.18-.36-57-1.47-83.78-11.18-22-8-42.07-22.91-53.54-43.57-11-19.79-11.84-43.27,1.62-62.08,12-16.8,34.8-28.65,55-19.45,16.91,7.7,24.29,26.38,24,44.05a62.38,62.38,0,0,1-26.88,50.58c-19.38,13.75-43.65,18.49-67,19.29-52.88,1.83-107.19-12.32-154-36.47A334,334,0,0,1,679,426.11c-2.67-1.8-5.18,2.53-2.52,4.32Z"/><path class="cls-1" d="M304.62,218A391.69,391.69,0,0,1,356.8,89a387.22,387.22,0,0,1,49.32-62.55C439.3-7.71,519.27-11.25,548.35,30.39c19.72,28.23,14.33,74.07-13.46,111.67a362.67,362.67,0,0,1-77.75,46A368.8,368.8,0,0,1,304.62,218Z"/><path class="cls-1" d="M304.62,533.24a391.73,391.73,0,0,0,52.18,129,387.66,387.66,0,0,0,49.32,62.55c33.18,34.18,113.15,37.73,142.23-3.91,19.72-28.23,14.33-74.07-13.46-111.67a362.67,362.67,0,0,0-77.75-46A368.84,368.84,0,0,0,304.62,533.24Z"/></g></g></svg>