<svg xmlns="http://www.w3.org/2000/svg" viewBox="0 0 321.39 146.95"><defs><style>.cls-1{fill:#ebbc48;}.cls-2{fill:none;}</style></defs><title>Fichier 8</title><g id="Calque_2" data-name="Calque 2"><g id="Calque_1-2" data-name="Calque 1"><path class="cls-1" d="M282.49,71c-1.37.38-2.42,3.13-3,5-1.62,5.53-1.6,12-4.6,16.58-7,10.57-17.89,13-29.69,9.5-5-1.49-6.24.18-7.44,4.36-6,20.81-20.41,29.19-41.37,22.86-11.92-3.61-23.23-9.23-34.87-13.82-2.59-1-5.43-2.16-8.11-2.06-12.49.44-25,1.41-37.45,1.87-1.38,0-3-1.77-4.16-3.07-.39-.45.43-2.82.73-2.83a19.56,19.56,0,0,1,4.7.73c1.3.31,3,1.55,3.75,1.09,12.29-8.12,28.76-11.46,33.2-28.67a9.93,9.93,0,0,1,1.58-3c2.45-3.51,1.93-5.72-1.32-9.13-5.11-5.37-10-11.6-12.83-18.36-4.22-9.92,1.59-20.15,12-23.28,3.39-1,7.09-1.06,10.67-1.37,2.71-.24,4.3-1,3.68-4.24a24.48,24.48,0,0,1-.1-5.68C168.28,8.05,175.05-.41,183.26,0a33.13,33.13,0,0,1,15.88,5C211.4,13,218.5,25.07,222,39.19c1.45,5.83,2.44,11.78,3.85,18.66,1.91-1.48,3.4-2.44,4.66-3.64,6.78-6.39,15.57-9.51,23.59-6.12,9,3.83,13.61.35,18.62-5.6a25,25,0,0,1,5.37-5.06C283,34.31,288,31,293.31,28.76s11,.77,13.11,5.91c1.8,4.44-.27,10.45-4.46,12.95-4.68,2.81-10.49,1.41-14-3.39-1-1.3-1.89-2.64-3.36-4.69-4.73,4.52-9.13,8.37-13,12.69-.9,1-.68,3.82,0,5.32,3,6.37,7.57,9.58,14.87,6.25A19.06,19.06,0,0,1,292,62.63c7.9-.94,15.86-2.38,23.49,1.27,5.52,2.63,7.38,8.27,4.69,13.88-2.53,5.26-7.95,7.2-13.38,4.92-6.62-2.78-6.57-8.52-6.13-15.37C294.2,68.57,288.24,69.43,282.49,71ZM159.41,33.77c-11.36.52-16,9.72-11,19.93,5.15,10.39,14,16.91,24.27,21.44C187,81.5,202.28,83.06,217.85,82c4.33-.3,5.36-2,3.34-5.88-6.11-11.6-22-32.15-39.11-38.38l.17-1.44C174.63,35.37,167,33.42,159.41,33.77Zm112.3,52.31c5-11.47-1.35-25.63-13.83-30.87-11.52-4.84-22.9-.82-27.31,9.65-4.8,11.39,1.65,25.29,14.25,30.72C255.83,100.32,267.26,96.28,271.71,86.08ZM190.89,7.15C185,4.8,180.19,5.57,176.94,9.57s-5,15.18-1.64,17.66c4.4,3.21,10.07,4.69,16.81,7.62-2.24-4.11-4.07-6.82-5.2-9.8-.51-1.37.35-3.26.58-4.91,1.5.73,3.67,1.06,4.37,2.25,3.79,6.51,6.67,13.62,10.92,19.78s9.66,11.26,15.63,18.06C219.27,35.74,206.13,13.18,190.89,7.15Zm4.3,105.69c-2.49-6.16-5.35-12.26-6.91-18.67-1.42-5.85-3.78-9.64-10-10.41-1.81-.23-3.53-1.11-6.25-2,.11,2.76-.18,4.81.32,6.65,2,7.31,4.4,14.52,6.31,21.85,2.45,9.45,10.38,11.19,18.07,13.33.74.2,1.71-.41,3.31-.84C198.25,119.18,196.51,116.1,195.19,112.84ZM213,121.42c2.77,3.89,5.92,1.68,9,0s3.75-3.66,2.14-7c-3.65-7.48-6.81-15.21-10.5-22.67a6.91,6.91,0,0,0-4.47-3.29c-3.26-.51-6.66-.15-10.88-.15C201.34,101.1,206.06,111.77,213,121.42Zm-59.71-19.79c-.39,1.22,1.5,3.83,3,4.81,2.6,1.7,5.71,2.63,10.09,4.53-2.22-8.79-4.05-16.09-5.89-23.39l-1.26-.17C157.13,92.13,154.78,96.75,153.25,101.63Zm72.88-13.81c-1.38,3.74.6,9.63,5.22,14.94C234.73,96.86,234,94.79,226.13,87.82ZM300.5,40.31c.27-1.85-1.47-4-2.36-6-1.83.9-4.48,1.37-5.26,2.83s.61,3.75,1.36,7.21C297.34,42.45,300.31,41.59,300.5,40.31Zm9.17,36.57c1.39.44,3.42-1.14,5.17-1.83-.75-1.89-1-4.52-2.4-5.42-1.17-.76-3.64.49-5.54.85l-.79,2C307.27,74,308.17,76.41,309.67,76.88Z"/><path class="cls-1" d="M30.53,113.87c-.67-.11-.94-.07-1-.18-1.85-2.27-2.48-7-6.56-5-1.32.67-.83,5.32-.7,8.13a3.58,3.58,0,0,0,2.44,2.49c4.19.22,8.7.86,12.46-.46,1.53-.54,1.55-5.66,2-8.73.09-.63-1.07-2.09-1.44-2a11.66,11.66,0,0,0-5.06,1.71C31.53,110.73,31.17,112.58,30.53,113.87Z"/><path class="cls-1" d="M84.43,102.47c-2.4,1.38-4.48,2-5.67,3.4-2.06,2.44-3.34,3.07-5.79.28-1.22-1.39-3.85-1.54-5.84-2.24-.36,1.14-1.37,2.69-.95,3.35,1.57,2.49,3.18,5.46,5.59,6.77,2.11,1.15,5.88,1.3,7.87.12,2.54-1.51,4.18-4.69,5.85-7.38C85.91,106.08,85,104.56,84.43,102.47Z"/><path class="cls-1" d="M37.42,135.65l2.36,4.94c1.47-.76,3.51-1.17,4.22-2.38.47-.8-.58-3.35-1.62-3.94C41.51,133.76,39.66,135,37.42,135.65Z"/><path class="cls-1" d="M52.44,104.67c2.26,1.87,3.32,3.43,4.22,3.34,1.57-.15,3.05-1.32,4.56-2.06-.64-1.13-1.3-3.23-1.92-3.22C57.52,102.76,55.76,103.65,52.44,104.67Z"/><path class="cls-1" d="M41.8,106c1.6,2.27,2.5,4.27,3,4.17A23.9,23.9,0,0,0,50.12,108c-.5-1.05-.94-3-1.51-3C46.83,104.88,45,105.46,41.8,106Z"/><path class="cls-1" d="M11,133.55c1.53,2.61,2.49,4.23,3.45,5.85,1.11-.75,3.13-1.49,3.14-2.25a8,8,0,0,0-1.77-4.7C15.43,132,13.37,133,11,133.55Z"/><path class="cls-1" d="M36.87,123.61c1.63,2.66,2.41,4.42,3.68,5.7.36.36,3.14-.86,3.11-1.05a16,16,0,0,0-1.79-5.42C41.63,122.43,39.49,123.17,36.87,123.61Z"/><path class="cls-1" d="M75.22,139.32c1.54,1.91,2.43,3.8,3.14,3.74A8.44,8.44,0,0,0,83,140.92c.43-.41-.65-2.43-1-3.71Z"/><path class="cls-1" d="M59.19,122.93c-2.35,2-4,2.78-4.47,4s.36,3,.62,4.45c1.46-.79,3.43-1.25,4.23-2.47C60.21,127.9,59.46,126,59.19,122.93Z"/><path class="cls-1" d="M84.52,136.49c2.22-1.55,4-2.14,4.24-3.11.4-1.57-.22-3.39-.4-5.1-1.41.54-3.59.74-4,1.72C83.69,131.4,84.34,133.37,84.52,136.49Z"/><path class="cls-1" d="M82,117.75c1.71,2.62,2.58,4.34,3.87,5.65.31.31,3-1,2.94-1.19a14.92,14.92,0,0,0-1.91-5.29C86.62,116.5,84.52,117.29,82,117.75Z"/><path class="cls-1" d="M66.93,145.82l5.37-2.77c-.72-1.26-1.37-3.49-2.19-3.56a6.63,6.63,0,0,0-4.41,1.86C65.28,141.73,66.31,143.7,66.93,145.82Z"/><path class="cls-1" d="M88.77,103.14c1.28,2.2,1.91,4.32,2.64,4.36,1.82.09,3.7-.77,5.55-1.24-.62-1.21-1-3.15-1.92-3.44C93.52,102.34,91.67,102.91,88.77,103.14Z"/><path class="cls-1" d="M28.22,143.18c1.67,2,2.51,3.8,3.27,3.77a9.84,9.84,0,0,0,4.76-1.82c.27-.18-.75-3.33-1.17-3.33C33.24,141.8,31.4,142.46,28.22,143.18Z"/><path class="cls-1" d="M59.58,117.6c.79,1.85,1.31,3.06,1.82,4.27,1.58-1,3.42-1.73,4.59-3.06.42-.49-.76-2.38-1.21-3.62Z"/><path class="cls-1" d="M102.88,110.36l5-1.79c-.67-1.3-1-3.25-2.09-3.73s-2.89.34-4.37.6C101.86,106.84,102.27,108.24,102.88,110.36Z"/><path class="cls-1" d="M16.58,140.89c2.06,2.59,2.8,4.39,4,4.77s3-.54,4.48-.9c-.74-1.3-1.18-3.11-2.3-3.77S19.87,140.87,16.58,140.89Z"/><path class="cls-1" d="M53.44,136.4c2.07,2.25,3,3.89,4.36,4.49.85.38,2.39-.84,3.63-1.34-.9-1.47-1.52-3.28-2.79-4.26C58,134.78,56.18,135.75,53.44,136.4Z"/><path class="cls-1" d="M4.92,101.86,0,104.31c.65,1.18,1.07,3,2,3.36a4.27,4.27,0,0,0,3.75-1.19C6.28,105.86,5.39,104.09,4.92,101.86Z"/><path class="cls-1" d="M15.79,130c2.48-2.16,4.19-3,4.56-4.17s-.68-2.77-1.1-4.18c-1.25.89-2.88,1.54-3.62,2.73C15.07,125.25,15.64,126.86,15.79,130Z"/><path class="cls-1" d="M12.85,110.33l4.5-1.92c-.7-1.15-1.25-3.1-2.15-3.27a6,6,0,0,0-4.68,1.08c-.84.77-.45,2.85-.61,4.36Z"/><path class="cls-2" d="M182.08,37.74c17.08,6.23,33,26.78,39.11,38.38,2,3.85,1,5.58-3.34,5.88-15.57,1.06-30.81-.5-45.16-6.86-10.23-4.53-19.12-11-24.27-21.44-5.06-10.21-.37-19.41,11-19.93,7.56-.35,15.22,1.6,22.84,2.53Zm5.82,24.41c-.82-1.61-1.22-3.88-2.54-4.71a161.32,161.32,0,0,0-16.35-9c-1.53-.72-3.85.25-5.81.45.9,1.58,1.41,3.81,2.77,4.61,5.52,3.27,11.29,6.1,18.21,9.74Z"/><path class="cls-2" d="M230.57,64.86c4.41-10.47,15.79-14.49,27.31-9.65,12.48,5.24,18.82,19.4,13.83,30.87-4.45,10.2-15.88,14.24-26.89,9.5C232.22,90.15,225.77,76.25,230.57,64.86Zm18,14.29a10.45,10.45,0,0,0,13.7-5.57c2.5-5.57.52-11.44-4.71-14a10.75,10.75,0,1,0-9,19.54Z"/><path class="cls-2" d="M218.41,60.23c.86-24.49-12.28-47-27.52-53.08C185,4.8,180.19,5.57,176.94,9.57s-5,15.18-1.64,17.66c4.4,3.21,10.07,4.69,16.81,7.62-2.24-4.11-4.07-6.82-5.2-9.8-.51-1.37.35-3.26.58-4.91,1.5.73,3.67,1.06,4.37,2.25,3.79,6.51,6.67,13.62,10.92,19.78S212.44,53.43,218.41,60.23Z"/><path class="cls-2" d="M200,122.74c-1.75-3.56-3.49-6.64-4.81-9.9-2.49-6.16-5.35-12.26-6.91-18.67-1.42-5.85-3.78-9.64-10-10.41-1.81-.23-3.53-1.11-6.25-2,.11,2.76-.18,4.81.32,6.65,2,7.31,4.4,14.52,6.31,21.85,2.45,9.45,10.38,11.19,18.07,13.33C197.43,123.78,198.4,123.17,200,122.74Z"/><path class="cls-2" d="M198.24,88.3c3.1,12.8,7.82,23.47,14.72,33.12,2.77,3.89,5.92,1.68,9,0s3.75-3.66,2.14-7c-3.65-7.48-6.81-15.21-10.5-22.67a6.91,6.91,0,0,0-4.47-3.29C205.86,87.94,202.46,88.3,198.24,88.3Z"/><path class="cls-2" d="M159.18,87.41c-2.05,4.72-4.4,9.34-5.93,14.22-.39,1.22,1.5,3.83,3,4.81,2.6,1.7,5.71,2.63,10.09,4.53-2.22-8.79-4.05-16.09-5.89-23.39Z"/><path class="cls-2" d="M231.35,102.76c3.38-5.9,2.6-8-5.22-14.94C224.75,91.56,226.73,97.45,231.35,102.76Z"/><path class="cls-2" d="M294.24,44.34c3.1-1.89,6.07-2.75,6.26-4,.27-1.85-1.47-4-2.36-6-1.83.9-4.48,1.37-5.26,2.83S293.49,40.88,294.24,44.34Z"/><path class="cls-2" d="M306.11,72.49c1.16,1.55,2.06,3.92,3.56,4.39s3.42-1.14,5.17-1.83c-.75-1.89-1-4.52-2.4-5.42-1.17-.76-3.64.49-5.54.85Z"/><path class="cls-1" d="M184.18,63.23l3.72-1.08c-.82-1.61-1.22-3.88-2.54-4.71a161.32,161.32,0,0,0-16.35-9c-1.53-.72-3.85.25-5.81.45.9,1.58,1.41,3.81,2.77,4.61C171.49,56.76,177.26,59.59,184.18,63.23Z"/><path class="cls-1" d="M257.58,59.61c5.23,2.53,7.21,8.4,4.71,14a10.45,10.45,0,0,1-13.7,5.57,10.75,10.75,0,1,1,9-19.54Zm-6.87,13.24c1.8.46,4.1-1,6.19-1.65-.76-2.07-1-4.78-2.46-6-1-.8-3.72.56-7.1,1.24C248.87,69.56,249.45,72.53,250.71,72.85Z"/><path class="cls-2" d="M247.34,66.46c1.53,3.1,2.11,6.07,3.37,6.39,1.8.46,4.1-1,6.19-1.65-.76-2.07-1-4.78-2.46-6C253.46,64.42,250.72,65.78,247.34,66.46Z"/></g></g></svg>