<svg xmlns="http://www.w3.org/2000/svg" viewBox="0 0 214.03 47.39"><defs><style>.cls-1{fill:#f5cf5c;}</style></defs><title>Fichier 1</title><g id="Calque_2" data-name="Calque 2"><g id="Calque_1-2" data-name="Calque 1"><path class="cls-1" d="M1.13,26A90.34,90.34,0,0,0,44.71,41.09c12.51.95,29.14-1.26,34.08-14.83,1.83-5,1.62-11.27-1.28-15.88A13.13,13.13,0,0,0,62.14,4.9,18,18,0,0,0,50.4,18.6C49.3,25.48,52.5,32.27,57.34,37c11.6,11.4,29.39,10.1,44.38,10.23,17.4.15,34.82.31,52.2-.46A156.72,156.72,0,0,0,178.84,44c7.31-1.52,14.79-3.76,21.15-7.76,5.56-3.51,10.6-8.77,12-15.4,1.19-5.78,0-12.25-4.1-16.65a13.45,13.45,0,0,0-16-2.71c-5.2,2.6-8.93,8.14-10.22,13.72-1.48,6.41.5,12.49,4.49,17.58S196,41.45,201.94,44a69.42,69.42,0,0,0,9,3c3.11.83,4.44-4,1.33-4.82-10-2.68-22.7-8.07-25.72-19.15-1.22-4.49.27-9.63,3.2-13.34a13.62,13.62,0,0,1,5-4,8,8,0,0,1,6-.28c4.22,1.41,6.43,6,6.64,10.26.28,5.38-2.24,10-6.28,13.6-4.72,4.21-10.86,6.58-16.85,8.3a111.14,111.14,0,0,1-22,3.77c-15.49,1.26-31.13,1.11-46.66,1.06q-12.06,0-24.12-.19c-7.09-.1-14.29-.38-21-2.75A24.41,24.41,0,0,1,57.23,28.79C54.56,24,54.36,18.39,57.79,14c2.77-3.59,7.74-6.07,11.95-4.11,3.81,1.78,5.31,6,5.21,10.09a14.43,14.43,0,0,1-6.17,11.54c-4.88,3.48-11,4.63-16.9,4.81A81.85,81.85,0,0,1,12.64,27a88.52,88.52,0,0,1-9-5.33C1,19.85-1.52,24.18,1.13,26Z"/></g></g></svg>