<svg xmlns="http://www.w3.org/2000/svg" viewBox="0 0 205.3 203.32"><defs><style>.cls-1{fill:#ebbc48;}.cls-2{fill:none;}</style></defs><title>Fichier 6</title><g id="Calque_2" data-name="Calque 2"><g id="Calque_1-2" data-name="Calque 1"><path class="cls-1" d="M152.69,44.5c3.33-.35,5.74-1,8.05-.76,6,.72,10.18,5.82,9.85,12.6-.2,4.16,1.37,6.38,4.8,8.17,2.4,1.26,4.34,3.55,6.82,4.47a8.77,8.77,0,0,0,6-.59c5.3-2.38,9.75-1.16,13.9,2.4,3.2,2.75,4.15,6.69,2.09,9.8a12.83,12.83,0,0,1-8.17,5c-3.9.53-6.57-2.49-7.68-6.39-.27-1-.42-2-.69-3.22-3.84.7-5.48,2.73-5.44,6.42.07,6.42.25,12.84-.17,19.23-.14,2-1.74,4.16-3.18,5.81-3.26,3.73-7,7.06-10.13,10.88-.68.82.13,3.13.66,4.61,3.11,8.59,7.11,16.94,9.32,25.74a42.71,42.71,0,0,1-4.53,32.65c-7.64,13.1-21.34,13.54-29.47.7-3-4.78-5.68-4.93-10.55-3.56-6.45,1.81-13.31,2.08-19.89,3.48a21,21,0,0,0-8.71,3.76c-5.92,4.78-11.3,10.22-17.09,15.17-1.49,1.27-3.7,1.68-5.59,2.49.08-2.25-.4-4.72.35-6.72A119.81,119.81,0,0,1,90.51,180c3.88-6.94,2.23-13.22-1.11-20.54C84.15,162.39,79.1,165.23,74,168c-14.88,8.27-9.43,8.14-24.32-.15-5.14-2.86-10.07-6.11-15.32-8.76-3.49-1.76-4.51-4.21-4.43-7.9.2-8,.34-16-.11-23.91a9.48,9.48,0,0,0-3.71-6.49c-6.94-4.53-14.22-8.56-21.47-12.6-3.21-1.78-4.76-4-4.68-7.86.21-9,.17-18,0-27a7.67,7.67,0,0,1,4.39-7.53c6.51-3.6,12.79-7.63,19.42-11,4.36-2.21,5.82-5.22,5.62-9.95A210,210,0,0,1,29.59,22a10.24,10.24,0,0,1,4.08-6.86c7.53-4.9,15.51-9.09,23.19-13.75,3.22-2,6-1.83,9.15.09C73,5.7,80,9.89,87.19,13.55a9.37,9.37,0,0,0,7.4,0c7.1-3.56,14-7.61,20.73-11.79,3.51-2.17,6.5-2.38,10.08-.19,7.37,4.53,14.82,8.94,22.45,13,3.73,2,5.11,4.52,4.93,8.7C152.47,30.21,152.69,37.11,152.69,44.5ZM59,85c3.28-9.86-2.34-16.83-13.21-20.8a1.59,1.59,0,0,1-.43-.3c-8.59-7.49-16.32-6.5-26.26-.72C8.71,69.19,4.51,75.46,4.82,87.73c.27,10.91,3.69,16.44,12.9,22.2,10.63,6.64,18.38,6.78,28.65-.2C61.46,99.47,58.46,105.41,59,85ZM87.46,36.24c4.05-12.08-2.39-17.69-12.12-23.5-10-5.95-17.15-6.34-27.45-.32-10.14,5.91-13.83,12-13.83,23.74,0,11.42,3.63,17.3,13.31,23,10.2,6,17.75,6.56,27.94,0C84.41,53.27,91.7,48.31,87.46,36.24Zm59.46,1.39c0-17.18-.51-16.43-12.77-24.87-9.79-6.72-17.22-6.22-27.37-.22-9.71,5.75-13.17,11.64-13.29,23-.13,12,3.23,18.71,14.08,24,16.47,8,9.68,7.85,25.83,0C144,54.24,150.35,48,146.92,37.63ZM35.39,138.07c0,3.12.22,6.26,0,9.35-.4,4.39,1.37,7.08,5.24,9.09,5.83,3,11.49,6.39,17.1,9.81a7.43,7.43,0,0,0,8.66,0,199.55,199.55,0,0,1,18-10.33c5.84-2.8,3.54-7.38,3.64-11.61.09-4.4-3.07-4.63-6.15-5.44C67.68,135.2,63.87,128.23,68,114.55c.39-1.26-.46-3.47-1.49-4.47-2.49-2.43-5.48-2.53-8.53-.58s-5.78,4-9,5.22C38.38,119,31.76,125.48,35.39,138.07ZM64.74,84.59c0,6.14-.75,10.49.26,14.39.68,2.63,3.55,5,6,6.74,1.12.79,4.07.24,5.39-.76a56,56,0,0,1,34.8-11.52c5.36,0,6.07-2.08,6.77-7,1.67-11.56-3.53-17.16-13.07-22.92-10.33-6.24-17.7-5.91-27.79.37C67.84,69.68,61.47,74.93,64.74,84.59Zm110.65,74.5c-1.08-15-7-27.54-14.47-39.53-3-4.87-4.78-4.77-7.52.2a83.4,83.4,0,0,0-10.48,32.83,40.68,40.68,0,0,0,6.43,26.71c6,9,15.19,8.82,20-.75C172.36,172.56,173.44,165.61,175.39,159.09Zm-36.91-54.73c0-.77-.11-1.55-.16-2.32-4.26-.9-8.49-2.07-12.79-2.66-16.84-2.3-32.8-.49-46.52,10.78A26.91,26.91,0,0,0,76,113c-3.4,3.78-5.91,8.16-3.87,13.2s6.87,7.14,12.13,7.53C108.8,135.54,124.29,121.09,138.48,104.36Zm-.16,64.15c-.2-3.73-.48-5.76-.39-7.78.23-5.51-2.11-8.71-7.38-10.9a40.68,40.68,0,0,1-13-8.34c-5.19-5.18-10.22-6.39-17-3.68-3.63,1.45-4.59,2.36-2,5.63a66.67,66.67,0,0,0,24.21,19.14C127.28,164.77,132.22,166.23,138.32,168.51ZM151.8,83.74a14.59,14.59,0,0,0-12.48,6.15c-2.29,3-2.66,5.29,1.65,7.64A142.23,142.23,0,0,1,160.2,110.3c4.7,3.67,6.58,3.75,9.22-1.63C174.87,97.56,165,83.63,151.8,83.74Zm-17.27,2.5c6.21-6.21,13.18-8.9,21.47-7.88a3.52,3.52,0,0,0,2.92-1.52c1.59-4,3.71-8,3.81-12.12,0-1.65-4.56-3.43-7-5.13-.57-.39-1.17-1-1.79-1-2.32-.19-5.07-1-6.91-.12-6.79,3.4-13.33,7.33-19.85,11.24-1.36.82-3.1,2.38-3.18,3.69-.34,5.87-.23,11.77-.06,17.65,0,.85,1.29,1.67,2,2.5.62-.88,1.75-1.74,1.79-2.65.21-4.32-.21-8.7.28-13,.24-2.1,1.46-4.78,3.11-5.89a176.3,176.3,0,0,1,16.62-9.57c1.21-.63,3-.09,4.59-.09-.64,1.55-.84,3.73-2,4.52-4,2.74-8.3,5-12.47,7.43C132.71,77.31,132.08,79.29,134.53,86.24Zm-15.59,44.41c6.43,4.1,11.55,7.52,16.88,10.6.77.44,3.1-.35,3.66-1.24,4.38-6.86,3.33-11.26-3.48-15.89a14.63,14.63,0,0,0-3-2c-1-.36-2.54-.67-3.24-.16C126.43,124.4,123.33,127.08,118.94,130.65ZM95.8,157.41c1.46,7.14,1,14.46,7,18.26,6.25,4,13,.23,20.18-.72ZM168.25,85c3.25-4.18,6.25-7.42,8.22-11.2.32-.59-4-3.62-6.21-5.52a129,129,0,0,0-6,11.82C163.92,80.82,166.29,82.65,168.25,85ZM145,104.5c-2.27,3.42-5.43,6.12-5.08,8.22s4.2,3.67,6.52,5.47c1.77-2.33,4.81-4.59,4.91-7C151.41,109.35,147.82,107.33,145,104.5Zm18.2-52.65c-1.84-1.28-2.91-2.53-4.09-2.64-.67-.07-2.27,1.89-2.11,2.66a4.13,4.13,0,0,0,2.68,2.61C160.41,54.64,161.52,53.15,163.17,51.85ZM97.3,178.71c-1.36,2.94-2.33,5.06-3.69,8C100.08,184.36,100.67,183.21,97.3,178.71Z"/><path class="cls-2" d="M59,85c-.51,20.44,2.49,14.5-12.6,24.76-10.27,7-18,6.84-28.65.2-9.21-5.76-12.63-11.29-12.9-22.2C4.51,75.46,8.71,69.19,19.07,63.15c9.94-5.78,17.67-6.77,26.26.72a1.59,1.59,0,0,0,.43.3C56.63,68.14,62.25,75.11,59,85ZM9.42,86.91a76.49,76.49,0,0,0,.11,9.34c.2,1.51,1.61,2.87,2.47,4.3,1-1.4,2.64-2.74,2.74-4.2.36-5-.24-10.08.34-15a10.35,10.35,0,0,1,3.83-6.43c4.16-3,9-5.2,13.26-8.08,1.08-.72,1.25-2.79,1.83-4.24-1.49-.09-3.2-.71-4.41-.17-3.15,1.39-5.94,3.59-9.1,4.91C11.63,71,6.56,76.68,9.42,86.91Z"/><path class="cls-2" d="M87.46,36.24c4.24,12.07-3,17-12.15,22.9-10.19,6.56-17.74,6-27.94,0-9.68-5.68-13.32-11.56-13.31-23,0-11.76,3.69-17.83,13.83-23.74,10.3-6,17.5-5.63,27.45.32C85.07,18.55,91.51,24.16,87.46,36.24ZM61.19,10.54a11.59,11.59,0,0,0-2.32.68c-6.13,3.52-12.31,7-18.31,10.73A5.45,5.45,0,0,0,38.7,25.9c-.19,6.57-.25,13.15,0,19.71.07,1.44,1.74,2.82,2.68,4.23C42.35,48.4,44,47,44.11,45.5A113.29,113.29,0,0,0,44.19,31c-.21-3.79,1.16-6.08,4.55-7.8a139.88,139.88,0,0,0,12.92-7.63c.91-.59,1.41-2.2,1.54-3.39C63.25,11.68,61.82,11,61.19,10.54Z"/><path class="cls-2" d="M146.92,37.63C150.35,48,144,54.24,133.4,59.42c-16.15,7.88-9.36,8-25.83,0-10.85-5.24-14.21-12-14.08-24,.12-11.32,3.58-17.21,13.29-23,10.15-6,17.58-6.5,27.37.22C146.41,21.2,146.92,20.45,146.92,37.63ZM97.85,34.1c0,5-.26,8.53.12,11.95.15,1.35,1.73,2.54,2.66,3.8.81-1.33,2.22-2.62,2.32-4a88.18,88.18,0,0,0,.06-13.5c-.38-4.59,1.13-7.43,5.37-9.41a89.15,89.15,0,0,0,12.05-7.13c1.1-.75,1.4-2.66,2.07-4-1.58-.17-3.41-.92-4.69-.38-3,1.26-5.63,3.42-8.62,4.73C100.56,19.9,94.77,25.17,97.85,34.1Z"/><path class="cls-2" d="M35.39,138.07c-3.63-12.59,3-19,13.67-23.35,3.18-1.27,6-3.36,9-5.22s6-1.85,8.53.58c1,1,1.88,3.21,1.49,4.47-4.17,13.68-.36,20.65,13.78,24.35,3.08.81,6.24,1,6.15,5.44-.1,4.23,2.2,8.81-3.64,11.61a199.55,199.55,0,0,0-18,10.33,7.43,7.43,0,0,1-8.66,0c-5.61-3.42-11.27-6.78-17.1-9.81-3.87-2-5.64-4.7-5.24-9.09C35.61,144.33,35.39,141.19,35.39,138.07Zm3.86-1.2c0,4.78-.28,8.11.13,11.35.17,1.35,1.82,2.51,2.79,3.76.83-1.33,2.29-2.61,2.38-4a122.06,122.06,0,0,0,.05-15.06c-.24-3.69,1.32-5.78,4.33-7.41,4.25-2.31,8.53-4.61,12.54-7.3,1.23-.82,1.62-2.89,2.4-4.38-1.74-.07-3.7-.69-5.16-.09-2.86,1.17-5.29,3.37-8.15,4.51C41.31,122,36.59,128,39.25,136.87Z"/><path class="cls-2" d="M64.74,84.59c-3.27-9.66,3.1-14.91,12.36-20.67,10.09-6.28,17.46-6.61,27.79-.37,9.54,5.76,14.74,11.36,13.07,22.92-.7,4.89-1.41,7-6.77,7A56,56,0,0,0,76.39,105c-1.32,1-4.27,1.55-5.39.76-2.45-1.7-5.32-4.11-6-6.74C64,95.08,64.74,90.73,64.74,84.59Zm3.85.83c0,4.83-.27,8.32.14,11.74.15,1.22,1.92,2.24,3,3.36.73-1.19,2-2.35,2.08-3.58a109,109,0,0,0,0-14c-.33-4.45,1.44-7.09,5.29-9a125.09,125.09,0,0,0,12.54-7.28c1-.63,1.11-2.53,1.63-3.84-1.48-.22-3.23-1-4.4-.55-3.14,1.38-5.92,3.59-9.06,5C71.18,71,65.47,76.34,68.59,85.42Z"/><path class="cls-2" d="M175.39,159.09c-1.95,6.52-3,13.47-6,19.46-4.81,9.57-14,9.71-20,.75a40.68,40.68,0,0,1-6.43-26.71,83.4,83.4,0,0,1,10.48-32.83c2.74-5,4.49-5.07,7.52-.2C168.37,131.55,174.31,144.11,175.39,159.09Zm-13.92.39h-.39a67.13,67.13,0,0,0-.12-8.75c-.16-1.17-1.68-2.16-2.59-3.23-.93,1.07-2.67,2.14-2.66,3.19.08,6,.47,12,1,18,.09.92,1.67,1.71,2.56,2.56.72-1,1.95-2,2.06-3C161.66,165.35,161.47,162.41,161.47,159.48Z"/><path class="cls-2" d="M138.48,104.36c-14.19,16.73-29.68,31.18-54.2,29.39-5.26-.39-10.07-2.41-12.13-7.53S72.62,116.8,76,113a26.91,26.91,0,0,1,3-2.86c13.72-11.27,29.68-13.08,46.52-10.78,4.3.59,8.53,1.76,12.79,2.66C138.37,102.81,138.43,103.59,138.48,104.36ZM110,113.57c-2.7-.91-4.32-2.09-5.49-1.74-5.62,1.66-11.19,3.58-16.62,5.79-1.16.47-1.69,2.5-2.51,3.81,1.49.41,3.18,1.5,4.43,1.12C95.12,121,100.3,119,105.45,117,106.73,116.53,107.74,115.34,110,113.57Z"/><path class="cls-2" d="M138.32,168.51c-6.1-2.28-11-3.74-15.63-5.93a66.67,66.67,0,0,1-24.21-19.14c-2.56-3.27-1.6-4.18,2-5.63,6.79-2.71,11.82-1.5,17,3.68a40.68,40.68,0,0,0,13,8.34c5.27,2.19,7.61,5.39,7.38,10.9C137.84,162.75,138.12,164.78,138.32,168.51Z"/><path class="cls-2" d="M151.8,83.74c13.23-.11,23.07,13.82,17.62,24.93-2.64,5.38-4.52,5.3-9.22,1.63A142.23,142.23,0,0,0,141,97.53c-4.31-2.35-3.94-4.61-1.65-7.64A14.59,14.59,0,0,1,151.8,83.74Z"/><path class="cls-2" d="M134.53,86.24c-2.45-6.95-1.82-8.93,3.27-11.94,4.17-2.47,8.5-4.69,12.47-7.43,1.16-.79,1.36-3,2-4.52-1.55,0-3.38-.54-4.59.09A176.3,176.3,0,0,0,131.06,72c-1.65,1.11-2.87,3.79-3.11,5.89-.49,4.27-.07,8.65-.28,13,0,.91-1.17,1.77-1.79,2.65-.7-.83-2-1.65-2-2.5-.17-5.88-.28-11.78.06-17.65.08-1.31,1.82-2.87,3.18-3.69,6.52-3.91,13.06-7.84,19.85-11.24,1.84-.91,4.59-.07,6.91.12.62,0,1.22.64,1.79,1,2.49,1.7,7.09,3.48,7,5.13-.1,4.08-2.22,8.16-3.81,12.12A3.52,3.52,0,0,1,156,78.36C147.71,77.34,140.74,80,134.53,86.24Z"/><path class="cls-2" d="M118.94,130.65c4.39-3.57,7.49-6.25,10.79-8.65.7-.51,2.24-.2,3.24.16a14.63,14.63,0,0,1,3,2c6.81,4.63,7.86,9,3.48,15.89-.56.89-2.89,1.68-3.66,1.24C130.49,138.17,125.37,134.75,118.94,130.65Z"/><path class="cls-2" d="M95.8,157.41,123,175c-7.14,1-13.93,4.68-20.18.72C96.77,171.87,97.26,164.55,95.8,157.41Z"/><path class="cls-2" d="M168.25,85c-2-2.31-4.33-4.14-4-4.9a129,129,0,0,1,6-11.82c2.19,1.9,6.53,4.93,6.21,5.52C174.5,77.54,171.5,80.78,168.25,85Z"/><path class="cls-2" d="M145,104.5c2.85,2.83,6.44,4.85,6.35,6.7-.1,2.4-3.14,4.66-4.91,7-2.32-1.8-6.16-3.34-6.52-5.47S142.7,107.92,145,104.5Z"/><path class="cls-2" d="M163.17,51.85c-1.65,1.3-2.76,2.79-3.52,2.63A4.13,4.13,0,0,1,157,51.87c-.16-.77,1.44-2.73,2.11-2.66C160.26,49.32,161.33,50.57,163.17,51.85Z"/><path class="cls-1" d="M9.42,86.91C6.56,76.68,11.63,71,20.49,67.31c3.16-1.32,6-3.52,9.1-4.91,1.21-.54,2.92.08,4.41.17-.58,1.45-.75,3.52-1.83,4.24-4.3,2.88-9.1,5-13.26,8.08a10.35,10.35,0,0,0-3.83,6.43c-.58,5,0,10-.34,15-.1,1.46-1.78,2.8-2.74,4.2-.86-1.43-2.27-2.79-2.47-4.3A76.49,76.49,0,0,1,9.42,86.91Z"/><path class="cls-1" d="M61.19,10.54c.63.48,2.06,1.14,2,1.63-.13,1.19-.63,2.8-1.54,3.39a139.88,139.88,0,0,1-12.92,7.63c-3.39,1.72-4.76,4-4.55,7.8a113.29,113.29,0,0,1-.08,14.51c-.12,1.51-1.76,2.9-2.7,4.34-.94-1.41-2.61-2.79-2.68-4.23-.28-6.56-.22-13.14,0-19.71A5.45,5.45,0,0,1,40.56,22c6-3.75,12.18-7.21,18.31-10.73A11.59,11.59,0,0,1,61.19,10.54Z"/><path class="cls-1" d="M97.85,34.1c-3.08-8.93,2.71-14.2,11.34-18,3-1.31,5.62-3.47,8.62-4.73,1.28-.54,3.11.21,4.69.38-.67,1.38-1,3.29-2.07,4a89.15,89.15,0,0,1-12.05,7.13c-4.24,2-5.75,4.82-5.37,9.41a88.18,88.18,0,0,1-.06,13.5c-.1,1.38-1.51,2.67-2.32,4-.93-1.26-2.51-2.45-2.66-3.8C97.59,42.63,97.85,39.13,97.85,34.1Z"/><path class="cls-1" d="M39.25,136.87C36.59,128,41.31,122,50.56,118.27c2.86-1.14,5.29-3.34,8.15-4.51,1.46-.6,3.42,0,5.16.09-.78,1.49-1.17,3.56-2.4,4.38-4,2.69-8.29,5-12.54,7.3-3,1.63-4.57,3.72-4.33,7.41A122.06,122.06,0,0,1,44.55,148c-.09,1.37-1.55,2.65-2.38,4-1-1.25-2.62-2.41-2.79-3.76C39,145,39.25,141.65,39.25,136.87Z"/><path class="cls-1" d="M68.59,85.42C65.47,76.34,71.18,71,79.8,67.22c3.14-1.39,5.92-3.6,9.06-5,1.17-.5,2.92.33,4.4.55-.52,1.31-.66,3.21-1.63,3.84a125.09,125.09,0,0,1-12.54,7.28c-3.85,1.94-5.62,4.58-5.29,9a109,109,0,0,1,0,14c-.07,1.23-1.35,2.39-2.08,3.58-1-1.12-2.8-2.14-3-3.36C68.32,93.74,68.59,90.25,68.59,85.42Z"/><path class="cls-1" d="M161.47,159.48c0,2.93.19,5.87-.1,8.77-.11,1.06-1.34,2-2.06,3-.89-.85-2.47-1.64-2.56-2.56-.57-6-1-12-1-18,0-1.05,1.73-2.12,2.66-3.19.91,1.07,2.43,2.06,2.59,3.23a67.13,67.13,0,0,1,.12,8.75Z"/><path class="cls-1" d="M110,113.57c-2.29,1.77-3.3,3-4.58,3.46-5.15,2-10.33,3.94-15.61,5.52-1.25.38-2.94-.71-4.43-1.12.82-1.31,1.35-3.34,2.51-3.81,5.43-2.21,11-4.13,16.62-5.79C105.71,111.48,107.33,112.66,110,113.57Z"/></g></g></svg>