<svg xmlns="http://www.w3.org/2000/svg" viewBox="0 0 209.37 212.99"><defs><style>.cls-1{fill:#ebbc48;}</style></defs><title>Fichier 10</title><g id="Calque_2" data-name="Calque 2"><g id="Calque_1-2" data-name="Calque 1"><path class="cls-1" d="M94.94,179.67A19.42,19.42,0,0,1,83,175.35a3.43,3.43,0,0,1-.62-4.81,3.46,3.46,0,0,1-3.9-.53c-8.72-8-3.22-17.44-1.41-20.54,5.83-10,25.75-17.2,37.39-13.58,5.3,1.65,7.87,6,6.55,11l-.63,2.43a110.61,110.61,0,0,1-4.73,15.17c-3,7.07-9.24,12.79-16,14.57A18.71,18.71,0,0,1,94.94,179.67Zm-9.82-10.48a3.36,3.36,0,0,1,2.09.72c3.41,2.62,7,3.46,10.73,2.48,4.74-1.26,9.21-5.41,11.38-10.59a104.91,104.91,0,0,0,4.41-14.23l.64-2.46c.19-.71.5-1.89-2-2.65-8.63-2.7-25.13,3.18-29.4,10.49-3.75,6.41-2.66,9.43.12,12a3.44,3.44,0,0,1,.41,4.63A3.43,3.43,0,0,1,85.12,169.19Z"/><path class="cls-1" d="M31.08,185.68a21.72,21.72,0,0,1-12.3-4.25c-9.87-6.8-13.69-16.82-17.33-28.25A3.44,3.44,0,0,1,3.33,149c10.13-4.53,22-8.84,35.16-2.7,5.82,2.72,9.77,6.26,11.72,10.5,2,4.41,1.82,9.49-.63,14.71a3.41,3.41,0,0,1-.69,1,3.45,3.45,0,0,1-.53,3.07C43.33,182.26,37.37,185.68,31.08,185.68ZM9,154.05c3.07,9.21,6.4,16.67,13.72,21.72s14.19,3.64,20.17-4.35a2.91,2.91,0,0,1,.33-.37,3.45,3.45,0,0,1,.17-2.46c1.61-3.42,1.81-6.33.62-8.91-1.26-2.73-4.08-5.14-8.4-7.16C26.93,148.47,18.82,150,9,154.05Z"/><path class="cls-1" d="M68.79,213a3.45,3.45,0,0,1-3.42-3.12c-.68-7.34-1.2-14.8-1.71-22l-.46-6.36c-.31-4.32-.79-8.73-1.26-13a206.27,206.27,0,0,1-1.68-23.37c0-10.65.28-21.46.51-31.91.1-4.55.21-9.1.29-13.66a3.38,3.38,0,0,1,3.51-3.37,3.44,3.44,0,0,1,3.37,3.5q-.14,6.84-.29,13.68c-.23,10.43-.47,21.2-.52,31.79a202.51,202.51,0,0,0,1.64,22.58c.48,4.33,1,8.82,1.29,13.26l.46,6.38c.5,7.17,1,14.59,1.7,21.86A3.44,3.44,0,0,1,69.11,213Z"/><path class="cls-1" d="M63.64,101.56A34.62,34.62,0,0,1,32.32,82.23,55.17,55.17,0,0,1,29,72.91c-.39-1.33-.78-2.66-1.22-4a3.61,3.61,0,0,1-.15-1.52,3.65,3.65,0,0,1,0-1c1.58-8.77,4.16-15.74,8.12-21.92S58.61,26,66.44,28.76c1.52.54,3.08,1,4.64,1.56,9.56,3.13,20.4,6.68,25,19.16,3.18,8.62,5.72,17.19,2,27.38-5.44,14.92-17.31,23.9-32.58,24.66C64.88,101.55,64.26,101.56,63.64,101.56ZM34.44,67.3c.4,1.21.76,2.45,1.12,3.68a50.24,50.24,0,0,0,2.9,8.17,27.81,27.81,0,0,0,26.69,15.5C77.7,94,87.1,86.87,91.61,74.5c2.93-8,.93-14.72-2-22.64-3.45-9.36-11.82-12.1-20.68-15-1.62-.53-3.24-1.06-4.82-1.63-3.39-1.16-19.44,8-22.59,12.94C38.12,53.5,35.86,59.59,34.44,67.3Z"/><path class="cls-1" d="M150.8,195.85a12.72,12.72,0,0,1-4.6-.84c-5.56-2.12-9.64-8.1-12.85-18.82a3.45,3.45,0,0,1,1.77-4.07c9.4-4.65,16.92-5.3,22.35-1.93,5,3.1,7.52,9.12,7.52,17.9a3.43,3.43,0,0,1-1.47,2.82,3.54,3.54,0,0,1-1,1C158.16,194.53,154.29,195.85,150.8,195.85Zm-10-18.79c2.28,6.54,4.89,10.42,7.8,11.53,2.35.89,5.44.22,9.43-2.09-.18-4-1.13-8.54-4.23-10.46C151.08,174.32,146.53,174.69,140.85,177.06Z"/><path class="cls-1" d="M187.74,192.72a20.7,20.7,0,0,1-11.5-3.94c-5.82-3.94-9.11-10-8.8-16.33a103.75,103.75,0,0,0-.38-12.11c-.13-1.86-.27-3.72-.36-5.58a3.44,3.44,0,1,1,6.87-.33c.09,1.81.22,3.62.35,5.42a108.78,108.78,0,0,1,.39,12.94,9.53,9.53,0,0,0,.34,3.12c4-6.46,10.83-14.23,23.37-12.84,6.84.76,7.61,4.89,7.46,8.84-.23,5.81-1.5,13.15-9.36,18.28A15.13,15.13,0,0,1,187.74,192.72Zm-9.31-10.95a15,15,0,0,0,1.66,1.31c7,4.77,11,2.2,12.27,1.35,4.25-2.77,6-6.36,6.25-12.79a9.79,9.79,0,0,0,0-1.5,7.11,7.11,0,0,0-1.32-.23c-7.33-.82-12.34,2.22-17.3,10.49A3.37,3.37,0,0,1,178.43,181.77Z"/><path class="cls-1" d="M195.12,144.52q-5.61,0-10.88-4.48a3.44,3.44,0,1,1,4.44-5.25c3.83,3.24,7.51,4.37,13.58,0a17.72,17.72,0,0,0-2.94-5.38,30.84,30.84,0,0,1-3.14-5.27,3.44,3.44,0,0,1,6.32-2.73,24.59,24.59,0,0,0,2.47,4.07c2,2.88,4.26,6.13,4.4,10.72A3.42,3.42,0,0,1,208.1,139C203.57,142.69,199.26,144.52,195.12,144.52Z"/><path class="cls-1" d="M110,68.71a3.44,3.44,0,0,1-2.75-5.5c1.31-1.75,2.64-3.48,4-5.21,3-3.85,6-7.84,8.76-11.88,1-1.49,1.5-2.76,1.3-3.39-.1-.29-.65-1.34-3.92-2.6-3.78-1.45-7.86-1.76-12.18-2.08a68.15,68.15,0,0,1-9.66-1.2A3.44,3.44,0,1,1,97,30.14a62.4,62.4,0,0,0,8.69,1.05c4.63.34,9.41.7,14.14,2.52,4.46,1.72,7.08,4,8,7,.88,2.81.17,5.86-2.18,9.31-2.85,4.21-6,8.27-9,12.21-1.31,1.71-2.63,3.42-3.92,5.14A3.4,3.4,0,0,1,110,68.71Z"/><path class="cls-1" d="M149.53,126.25h-.07c-9.27-.19-12.4-6.8-14.68-11.63a35.22,35.22,0,0,0-2.22-4.22,3.42,3.42,0,0,1,.7-4.56c9.23-7.5,15.1-8,24.14-2.24a3.44,3.44,0,0,1-3.72,5.79c-5.41-3.48-8.14-4-13.79,0,.39.77.75,1.53,1.1,2.28,2.36,5,3.82,7.6,8.61,7.7a3.44,3.44,0,0,1-.07,6.87Z"/><path class="cls-1" d="M186.46,109.93a3.38,3.38,0,0,1-2.22-.81,3.45,3.45,0,0,1-.41-4.85c3-3.55,3.88-6.78.09-13.61-7.18,2.19-10,5.41-10.35,11.29a3.43,3.43,0,1,1-6.86-.35c.63-12.44,10-16.31,18-18.28a3.43,3.43,0,0,1,3.74,1.51c6.29,10,6.48,17,.62,23.89A3.43,3.43,0,0,1,186.46,109.93Z"/><path class="cls-1" d="M192.47,125.39a3.44,3.44,0,0,1,0-6.87c5,0,8.73-3.62,9.59-9.11.18-1.11.22-1.41-2.46-1.88a67.11,67.11,0,0,1-9-2,3.44,3.44,0,0,1,2.09-6.55,62,62,0,0,0,8.1,1.83c8.12,1.42,8.54,6.7,8.06,9.72-1.38,8.85-7.94,14.85-16.32,14.91Z"/><path class="cls-1" d="M40,46a3.41,3.41,0,0,1-2.59-1.17C26.73,32.57,26.49,20,36.62,2.56a3.45,3.45,0,0,1,4.54-1.33,192.16,192.16,0,0,1,17.7,10.19C67.83,17.3,68,25,67,31.84a3.44,3.44,0,1,1-6.8-1c.88-6.11.33-10.1-5.15-13.69C50.8,14.36,46.16,11.63,41,8.89,34,22.06,34.54,31,42.61,40.25A3.43,3.43,0,0,1,40,46Z"/><path class="cls-1" d="M89.45,129.69l-.5,0c-5.68-.85-10-3.79-14.24-6.63-3.57-2.42-6.95-4.7-10.84-5.42a3.44,3.44,0,0,1,1.26-6.77c5.29,1,9.43,3.79,13.43,6.49,3,2,5.94,4,9.15,5C91.59,114.67,92,106.08,92,97.9a3.44,3.44,0,0,1,3.44-3.43h0a3.45,3.45,0,0,1,3.43,3.45c0,9.49-.55,20.43-6.47,30.13A3.44,3.44,0,0,1,89.45,129.69Z"/><path class="cls-1" d="M38.87,129.19h-.28a3.43,3.43,0,0,1-2.87-1.62c-3.55-5.74-4.57-11.81-5.65-18.23a101.55,101.55,0,0,0-2.31-11.11A3.44,3.44,0,0,1,29,94.51l8.52-6.25a3.44,3.44,0,0,1,4.07,5.55L35,98.67c.82,3.33,1.35,6.47,1.86,9.52.88,5.23,1.65,9.84,3.73,14,3.19-.53,5.91-2.45,9-4.63,3.6-2.55,7.67-5.43,12.93-5.88a3.44,3.44,0,1,1,.59,6.85c-3.4.29-6.39,2.4-9.54,4.64C49.54,126,45,129.18,38.87,129.19Z"/><path class="cls-1" d="M32.73,100.92H32.5c-10.8-.69-21.28-1.76-30.74-7.21A3.43,3.43,0,0,1,.13,89.93c3.2-13.51,12-21.75,19.37-27.42a3.47,3.47,0,0,1,2.8-.64l8.54,1.75a3.44,3.44,0,0,1-1.38,6.74l-7-1.44c-5.94,4.74-12,10.83-14.95,20,7.6,3.66,16.05,4.48,25.42,5.08a3.44,3.44,0,0,1-.21,6.87Z"/><path class="cls-1" d="M106.22,100.48c-6.93,0-13.38-2.85-19.93-8.57a3.44,3.44,0,0,1,4.52-5.18c9.73,8.49,18.18,9.12,30.49,2a53,53,0,0,0-5.48-9.13c-.88-1.29-1.77-2.57-2.62-3.88-3.9-6.06-8-8.17-13.68-7a3.44,3.44,0,0,1-1.33-6.75C106.72,60.21,113.53,63.51,119,72c.81,1.25,1.65,2.47,2.5,3.7,2.83,4.08,5.75,8.31,7.3,13.54a3.44,3.44,0,0,1-1.46,3.88C119.55,98,112.68,100.48,106.22,100.48Z"/><path class="cls-1" d="M88.55,43.81a3.44,3.44,0,0,1-2-6.27c4.55-3.14,5.81-6.9,5-14.9a31,31,0,0,0-2.17-7.59C88,11.44,86.62,7.69,86.83,3.27A3.5,3.5,0,0,1,90.43,0,3.44,3.44,0,0,1,93.7,3.6c-.14,3,1,5.92,2.13,9a36.31,36.31,0,0,1,2.58,9.31c.79,7.66.38,15.54-7.91,21.27A3.43,3.43,0,0,1,88.55,43.81Z"/><path class="cls-1" d="M19.41,69.57a3.45,3.45,0,0,1-2.78-1.41c-1.46-2-3-4-4.62-5.89-4.9-6-10-12.21-11.92-20.62a3.44,3.44,0,0,1,1.14-3.41C7.7,32.81,15,32,22.12,31.3a71.64,71.64,0,0,0,8.13-1.16,3.44,3.44,0,0,1,1.51,6.71,77.78,77.78,0,0,1-8.93,1.29c-5.6.59-10.93,1.14-15.45,4.08,1.93,5.86,5.84,10.66,10,15.71C19,60,20.65,62,22.19,64.11a3.44,3.44,0,0,1-.75,4.8A3.49,3.49,0,0,1,19.41,69.57Z"/><path class="cls-1" d="M64.5,23.19a3.44,3.44,0,0,1-.56-6.83c.93-.15,1.64-.86,2.82-2.1a20.61,20.61,0,0,1,2.61-2.41c1.06-.77,2.1-1.59,3.13-2.41,4.25-3.36,9.07-7.18,15.78-7.71a3.44,3.44,0,1,1,.54,6.85c-4.62.37-8.23,3.23-12,6.25-1.11.88-2.22,1.76-3.35,2.58A15,15,0,0,0,71.74,19c-1.45,1.53-3.44,3.62-6.68,4.15A3.6,3.6,0,0,1,64.5,23.19Z"/><path class="cls-1" d="M65.36,189.81a3.44,3.44,0,0,1-.83-.11c-5.51-1.37-9.54-4.61-12.75-7.61-9.48-8.83-19.1-14.5-29.41-17.31a3.44,3.44,0,0,1,1.81-6.64c11.41,3.12,22,9.31,32.29,18.92,2.7,2.52,5.74,5,9.72,6a3.44,3.44,0,0,1-.83,6.78Z"/><path class="cls-1" d="M85.12,170.91a3.44,3.44,0,0,1-2.31-6c1.44-1.29,2.78-2.69,4.12-4.09,4-4.12,8-8.38,14.32-10.38a3.44,3.44,0,0,1,2.08,6.56c-4.6,1.46-7.92,4.92-11.44,8.58-1.46,1.52-2.92,3-4.48,4.44A3.41,3.41,0,0,1,85.12,170.91Z"/><path class="cls-1" d="M173.58,212.84h0a3.31,3.31,0,0,1-3.43-3.29c0-9.82-.36-15.29-8.54-17.26a3.44,3.44,0,1,1,1.62-6.68C177.07,189,177,200.2,177,209.25A3.58,3.58,0,0,1,173.58,212.84Z"/><path class="cls-1" d="M188.18,170.05a3.41,3.41,0,0,1-3-1.79c-3.92-7.21-1.7-13.64.27-19.32a37.14,37.14,0,0,0,1.92-6.85,3.44,3.44,0,0,1,6.81.95,43.19,43.19,0,0,1-2.23,8.16c-1.72,5-3.2,9.23-.73,13.77a3.43,3.43,0,0,1-3,5.08Z"/><path class="cls-1" d="M184.74,161.46a3.34,3.34,0,0,1-1.08-.17c-.46-.15-.94-.27-1.42-.38a12.06,12.06,0,0,1-4.7-1.95c-4.19-3.24-8.42-3.12-14.13.38l-.5.32a8.45,8.45,0,0,1-7.16,1.5,3.46,3.46,0,0,1-2.43-2.06c-.43-1-.93-2.07-1.43-3.12-2.63-5.47-6.22-13,1.13-20.9a3.44,3.44,0,1,1,5,4.67c-4,4.3-2.73,7.5,0,13.26.19.4.39.8.58,1.21.13-.09.29-.2.49-.32l.66-.42c8.2-5,15.38-5,21.92,0a8,8,0,0,0,2.14.71c.66.16,1.32.32,1.94.53a3.44,3.44,0,0,1-1.08,6.7Z"/><path class="cls-1" d="M152.1,145.15A3.56,3.56,0,0,1,151,145a22.64,22.64,0,0,0-5.28-.78c-3.91-.29-8.77-.64-12.1-4.81a3.42,3.42,0,0,1-.75-2.21c.16-7.9,4.51-12.81,9.19-16.94a3.44,3.44,0,1,1,4.55,5.15c-3.86,3.41-6.26,6.32-6.77,10.52,1.41,1,3.45,1.22,6.38,1.43a29.16,29.16,0,0,1,6.91,1.1,3.44,3.44,0,0,1-1.07,6.71Z"/><path class="cls-1" d="M171.84,146.85a4.34,4.34,0,0,1-3-1.08c-1.43-1.29-3.36-2-5.6-2.72-4.16-1.43-9.33-3.21-12.37-10-4.15-9.23-1.47-16.21.88-22.37.4-1,.8-2.06,1.17-3.12a3.44,3.44,0,0,1,3-3.67,17.63,17.63,0,0,0,5.65-2.19c3-1.55,6.41-3.29,10.57-2.85,8.44.95,15.06,5.08,18.64,11.63,3.68,6.74,3.51,15.22-.46,23.26-2,4.06-12.74,12-17.4,12.94A6.18,6.18,0,0,1,171.84,146.85Zm1.65-6.2h0Zm-14.16-30.41c-.36,1-.73,2-1.1,3-2.25,5.84-4,10.46-1,17.08,1.81,4,4.69,5,8.34,6.26a25.06,25.06,0,0,1,6.87,3.23c3.09-1.22,10.8-7,11.84-9,3-6,3.18-12.17.58-16.91-2.47-4.53-7.21-7.4-13.36-8.09-2.07-.25-4.2.86-6.66,2.12A30.37,30.37,0,0,1,159.33,110.24Z"/><path class="cls-1" d="M151.25,105.64a3.45,3.45,0,0,1-3.36-4.21c2.63-11.38,3.85-16.06,7.64-17.66,3.31-1.41,6.44.49,11.18,3.35,1.66,1,3.62,2.2,5.95,3.48a3.44,3.44,0,0,1-3.32,6c-2.43-1.34-4.47-2.58-6.2-3.62a35.88,35.88,0,0,0-4.94-2.73c-1.08,1.73-2.52,8-3.6,12.69A3.44,3.44,0,0,1,151.25,105.64Z"/><path class="cls-1" d="M67.93,188.09a3.44,3.44,0,0,1-.73-6.8c3-.67,5-3,7.16-5.77a35.28,35.28,0,0,1,4.19-4.62,3.44,3.44,0,0,1,4.54,5.17,30,30,0,0,0-3.38,3.76c-2.63,3.27-5.62,7-11,8.18A3.82,3.82,0,0,1,67.93,188.09Z"/></g></g></svg>