<svg xmlns="http://www.w3.org/2000/svg" viewBox="0 0 269.62 134.11"><defs><style>.cls-1{fill:none;}</style></defs><title>Fichier 11</title><g id="Calque_2" data-name="Calque 2"><g id="Calque_1-2" data-name="Calque 1"><path d="M253.67,86.62a30.34,30.34,0,0,0-18-6.37c-1.18,0-2.69,1.89-3.62,3.22-6,8.58-13.88,11.73-24.25,9.51-1.77-.38-4.71,1.48-6.12,3.15-5.48,6.51-10.09,13.82-15.92,20a50.14,50.14,0,0,1-29.9,15.25c-7.81,1.16-15,0-20.11-6.47s-4.14-13.85-.44-20.38c2.65-4.66,1.34-7.05-2.1-10-3.28-2.86-6.89-5.86-8.87-9.58-5.91-11.12-16.17-14.65-27.24-17.29a89.85,89.85,0,0,1-11.45-3.43c-1.3-.5-2.1-2.29-3.13-3.49,1.2-1,2.3-2.54,3.61-2.75,8.06-1.28,16.23-1.93,24.24-3.45A21.71,21.71,0,0,0,119.64,50c6.3-5.16,12-11.11,18.29-16.24,3.08-2.5,3.6-4.32,2.19-8.09C134,9.2,143.17-2.19,160.57.36a45.16,45.16,0,0,1,13.36,4.51c14.71,7.35,23.34,20.27,30.07,34.58,1.86,4,3.49,5.94,8.35,5.39,9-1,16.14,3.13,20.28,11,2.49,4.73,5,6.4,10.14,4.8,3.89-1.22,8-1.75,12.8-2.74-1.31-2.26-2.77-3.64-2.82-5.08-.12-3.41-.67-7.62,1-10.05,1.5-2.14,6.43-3.87,8.74-3,2.91,1.14,6,4.84,6.72,8a10.7,10.7,0,0,1-6.73,13c-6.67,2.58-13.8,3.93-20.62,6.14-2,.65-3.61,2.42-5.41,3.68,1.53,1.35,2.84,3.19,4.62,4,6.06,2.66,12.51,4.51,18.37,7.5,6.26,3.2,8.59,8.8,7.18,14.68-1,4-3.15,7.64-7.43,7.42-3.17-.16-7.75-1.79-8.94-4.15-1.36-2.72.19-7,.77-10.54C251.21,88.61,252.47,87.89,253.67,86.62Zm-51-5.84c-2.92-.41-4.93-1.15-6.81-.89-8.24,1.11-16.66,1.73-24.61,4-13.57,3.86-24.87,11.38-31.26,24.59-4.36,9,.22,16.54,10.19,17.15a22,22,0,0,0,6.24-.23C180.28,119.82,192.44,102.14,202.62,80.78ZM144.14,19c1.18,2.51,2.83,7.81,5.86,12.16,11.9,17.06,30.12,22.62,49.34,26,4,.71,4.39-1.62,3.3-4.87C198.43,39.73,192.41,28.21,183,18.75A44.16,44.16,0,0,0,159.38,5.92C150.76,4.34,144.64,8.5,144.14,19Zm.19,72.72c2.93-2.16,4.43-3.72,6.26-4.53,5.78-2.54,6.43-6.92,5.84-12.6-.57-5.42-1.18-11.38.47-16.37,2.63-8-.72-12.4-6.3-16.82-2.78-2.2-4.33-1.91-5.49,1.27-4.45,12.23-5.28,24.8-3.39,37.59C142.23,83.73,143.26,87.11,144.33,91.73Zm68.37-3.8c7.29.26,13.7-4.69,16.64-12.38,4.21-11-3.55-24.39-14.37-24.74-3.53-.12-5.7.29-5.5,5.36a157.87,157.87,0,0,1-1.54,26C207.31,87,209.78,87.62,212.7,87.93ZM168.46,77.82c13.79-2.56,13.79-2.56,14.15-13,.14-4.17-9.1-10.58-12.92-8.91a2.78,2.78,0,0,0-1.57,1.49C166.64,64.23,165.65,71.08,168.46,77.82ZM129.71,80c.06-5.67,0-10.74.19-15.79s.56-9.87.88-15.33C115.3,58.49,115,71.21,129.71,80Zm66.74-11.26,4.37,4.89c1.16-1.57,3.31-3.18,3.24-4.7-.07-1.89-2-3.7-3.09-5.55C199.68,64.91,198.39,66.44,196.45,68.73Z"/><path d="M52.72,76.76c-.38,1.52-.49,3.2-1.23,4.53a23.17,23.17,0,0,1-3.32,3.86c-1.07-1.17-2.86-2.23-3.05-3.52a8.1,8.1,0,0,1,1.34-5.38,30.33,30.33,0,0,1,5.7-5.37A7.07,7.07,0,0,1,55.91,69c.77,0,1.62,1.67,2.36,2.65A19.21,19.21,0,0,1,60.52,75a52.23,52.23,0,0,1,1.76,5c-1.86-.1-4,.3-5.49-.48-.95-.5-1-2.77-1.4-4.25Z"/><path d="M24.85,107.25c-1.58-2-3.48-3.51-3.22-4.3.55-1.67,2.22-3,3.43-4.44,1.36,1.3,3.63,2.48,3.8,3.92C29,103.64,26.72,105.14,24.85,107.25Z"/><path d="M42.14,103.47c1.72-1.34,3.31-3,3.69-2.8a8.31,8.31,0,0,1,3.46,3.79c.24.67-1.78,2.13-2.78,3.23Z"/><path d="M32.83,126.16c-1-2.87-2.14-4.54-1.72-5.58.56-1.42,2.34-2.35,3.59-3.48.8,1.1,2.47,2.49,2.23,3.26C36.38,122.05,34.87,123.42,32.83,126.16Z"/><path d="M6.23,119.18c-1.07-2.32-2.4-4-2-4.6,1-1.52,2.78-2.56,4.24-3.79.65,1.19,2.05,2.64,1.76,3.53C9.72,115.81,8.15,117,6.23,119.18Z"/><path d="M25,132.29c-.62-1.09-2-2.72-1.73-3.17a8.4,8.4,0,0,1,4-3.12c.52-.18,2.62,2,2.58,3.11-.08,1.69-1.34,3.33-2.1,5Z"/><path d="M22.79,123.9c-2.21,1.56-3.9,3.12-4.18,2.9A15.49,15.49,0,0,1,15,122.49c-.16-.29,1.85-2.48,2.23-2.32C18.86,120.87,20.26,122.12,22.79,123.9Z"/><path d="M68.79,93.46,73,90.21c.86,1.27,2.4,2.54,2.39,3.81s-1.61,2.43-2.51,3.64C71.74,96.46,70.57,95.26,68.79,93.46Z"/><path d="M70.76,110.46c-1.27-2.34-2.65-3.75-2.36-4.55.61-1.65,2.1-3,3.23-4.42.94,1,2.8,2.21,2.63,2.94C73.84,106.18,72.47,107.69,70.76,110.46Z"/><path d="M62.75,69.35c-1.32-2.07-2.81-3.92-2.59-4.14a15.39,15.39,0,0,1,4.61-3.34C65.1,61.72,67.2,64,67,64.34,66.09,65.91,64.68,67.19,62.75,69.35Z"/><path d="M17.83,108.57l-6.45-1.38c.95-1.4,1.7-3.78,2.9-4,5.64-1.23,3.5,2.88,3.4,5.54Z"/><path d="M37.55,88.54c-1.31-2.2-2.76-3.71-2.45-4.29a9.28,9.28,0,0,1,3.68-3.59c.42-.23,2.92,2,2.76,2.36C40.77,84.67,39.44,86.06,37.55,88.54Z"/><path d="M30.05,108.3c1.15-.65,3-2.08,3.33-1.79a9.26,9.26,0,0,1,2.86,4.28c.16.58-2,2.61-2.73,2.46-1.77-.35-3.35-1.63-5-2.54Z"/><path d="M62.46,116.77c-.61-1.11-2-2.86-1.68-3.23a9.68,9.68,0,0,1,4.19-3c.44-.15,2.44,2,2.32,2.89-.23,1.71-1.48,3.28-2.3,4.9Z"/><path d="M69.48,87.9c-1.59-2.62-2.74-4.16-3.37-5.89-.1-.28,2.63-2.25,3-2a8.77,8.77,0,0,1,3.22,4C72.62,84.63,71,86,69.48,87.9Z"/><path d="M53.09,117.11c-1.54-2.22-2.76-3.51-3.26-5-.13-.4,2.45-2.43,2.94-2.16a9.22,9.22,0,0,1,3.47,3.69C56.44,114,54.66,115.41,53.09,117.11Z"/><path d="M45.43,98.26c-1.37-2.89-2.66-4.34-2.46-5.54s1.84-2.33,2.85-3.48c.85,1.21,2.3,2.39,2.37,3.64S47,95.46,45.43,98.26Z"/><path d="M73.87,65.29l-3.06-3.82c1.33-1,2.55-2.43,4-2.87.67-.19,1.91,1.6,2.89,2.5Z"/><path d="M34.82,91.86a33.79,33.79,0,0,1-5,3.56c-.24.11-2.35-2.33-2.09-2.85a8.34,8.34,0,0,1,3.48-3.48C31.64,88.84,33.1,90.5,34.82,91.86Z"/><path d="M17.68,108.69c1.51.68,3.45,1,4.37,2.18.54.69-.24,2.83-1,4-.38.6-2.51.93-2.85.53a6.75,6.75,0,0,1-1.43-3.68c-.08-1,.65-2.08,1-3.12Z"/><path d="M6.5,124.89l-4.08,3.42c-.86-1-2.64-2.46-2.4-3.06.59-1.47,2.11-2.56,3.26-3.8Z"/><path class="cls-1" d="M202.62,80.78c-10.18,21.36-22.34,39-46.25,44.61a22,22,0,0,1-6.24.23c-10-.61-14.55-8.15-10.19-17.15,6.39-13.21,17.69-20.73,31.26-24.59,8-2.26,16.37-2.88,24.61-4C197.69,79.63,199.7,80.37,202.62,80.78Zm-47.51,34c6.23-4.55,12.46-9,18.55-13.7.39-.3.05-2.37-.58-3a3.23,3.23,0,0,0-3-.35c-5.64,3.48-11.24,7-16.65,10.88-.87.62-1,2.65-1,4C152.42,113.23,153.72,113.76,155.11,114.8Z"/><path class="cls-1" d="M144.14,19c.5-10.51,6.62-14.67,15.24-13.09A44.16,44.16,0,0,1,183,18.75c9.41,9.46,15.43,21,19.64,33.55,1.09,3.25.73,5.58-3.3,4.87-19.22-3.38-37.44-8.94-49.34-26C147,26.82,145.32,21.52,144.14,19Zm30.64,17.28c1-.46,2.29-.69,2.44-1.25.31-1.12.48-3-.16-3.56-4.9-4.41-9.92-8.67-15.11-12.72-.8-.63-2.65.1-4,.2.33,1.49.15,3.52,1.07,4.39,3.82,3.62,7.94,6.92,12,10.29C172.14,34.59,173.43,35.35,174.78,36.29Z"/><path class="cls-1" d="M144.33,91.73c-1.07-4.62-2.1-8-2.61-11.46-1.89-12.79-1.06-25.36,3.39-37.59,1.16-3.18,2.71-3.47,5.49-1.27,5.58,4.42,8.93,8.83,6.3,16.82-1.65,5-1,11-.47,16.37.59,5.68-.06,10.06-5.84,12.6C148.76,88,147.26,89.57,144.33,91.73Z"/><path class="cls-1" d="M212.7,87.93c-2.92-.31-5.39-.9-4.77-5.81a157.87,157.87,0,0,0,1.54-25.95c-.2-5.07,2-5.48,5.5-5.36,10.82.35,18.58,13.76,14.37,24.74C226.4,83.24,220,88.19,212.7,87.93Z"/><path class="cls-1" d="M168.46,77.82c-2.81-6.74-1.82-13.59-.34-20.44a2.78,2.78,0,0,1,1.57-1.49c3.82-1.67,13.06,4.74,12.92,8.91C182.25,75.26,182.25,75.26,168.46,77.82Z"/><path class="cls-1" d="M129.71,80c-14.76-8.78-14.41-21.5,1.07-31.12-.32,5.46-.71,10.39-.88,15.33S129.77,74.32,129.71,80Z"/><path class="cls-1" d="M196.45,68.73c1.94-2.29,3.23-3.82,4.52-5.36,1.11,1.85,3,3.66,3.09,5.55.07,1.52-2.08,3.13-3.24,4.7Z"/><path d="M155.11,114.8c-1.39-1-2.69-1.57-2.69-2.11,0-1.37.1-3.4,1-4,5.41-3.83,11-7.4,16.65-10.88a3.23,3.23,0,0,1,3,.35c.63.59,1,2.66.58,3C167.57,105.77,161.34,110.25,155.11,114.8Z"/><path d="M174.78,36.29c-1.35-.94-2.64-1.7-3.78-2.65-4.06-3.37-8.18-6.67-12-10.29-.92-.87-.74-2.9-1.07-4.39,1.37-.1,3.22-.83,4-.2,5.19,4,10.21,8.31,15.11,12.72.64.58.47,2.44.16,3.56C177.07,35.6,175.74,35.83,174.78,36.29Z"/></g></g></svg>