<svg xmlns="http://www.w3.org/2000/svg" viewBox="0 0 197.3 251.57"><defs><style>.cls-1{fill:none;}</style></defs><title>Fichier 7</title><g id="Calque_2" data-name="Calque 2"><g id="Calque_1-2" data-name="Calque 1"><path d="M100.22,48.8c-.25,11.65-5.81,15.42-14.91,8.36C83.79,62,83.86,68.27,76.4,67.65c-6.63-.54-5.9-6.05-6.53-10.73-2.79,1.45-5.21,3.55-7.81,3.8-2.39.23-5-1.54-8.48-2.79,1.9,4.38,3.55,8.38,5.36,12.32C60.59,73.85,63,77.21,64,81a13.19,13.19,0,0,1-6,14.8c-5.12,3-12.73,2.37-17.08-1.42S35,83.57,37.74,77.66c3.16-6.91,6.42-13.78,10-20.44.79-1.44,3.3-1.94,5.91-3.35V46a11.68,11.68,0,0,1-2.54,1.88c-2.47.82-5.66,2.73-7.33,1.85a10.68,10.68,0,0,1-4.72-7c-.78-5.09-.35-10.36-.41-15.56,0-3.82.5-8,4.68-8.79,3-.54,6.38,1.32,9.79,2.15.81-2.88,1-7.83,3.41-11.19,3.71-5.15,8.26-1.1,12.61,1.45C70.27,5.81,70.11,0,76.85,0s6.86,5.64,7.63,9.29c4.17-.59,8.45-2.51,11.18-1.2s3.67,5.88,5.6,9.36c.06-.05.95-.64,1.79-1.3,5.53-4.35,11.21-2.53,12.17,4.5.61,4.48,2.55,5.22,6.42,5.16,14.2-.19,28.41,0,42.61-.31A14.37,14.37,0,0,0,172,22.57c5.38-4.1,12-5.45,17.45-2.3s8.3,7.86,7.8,14.2C196.73,41,193.05,45.23,187,47.58c-5.47,2.12-10,.14-14.59-2.8a17.09,17.09,0,0,0-8.34-3c-14.19-.23-28.4.07-42.61,0-3.52,0-5.61.42-6.13,4.84-.81,6.84-6.83,8.84-12.22,4.59C102.36,50.64,101.61,50,100.22,48.8Zm44.13-17.91v.24c-8,0-15.92-.14-23.87.13-1.59,0-3.12,1.71-4.69,2.63,1.61.79,3.22,2.25,4.83,2.27,15.74.15,31.48-.07,47.22.18a11.78,11.78,0,0,1,7,3.09c4.34,3.93,10,4.53,13.95.83A9.73,9.73,0,0,0,189,26.74c-4-4-9.25-3.53-13.87.47a14.64,14.64,0,0,1-8,3.52C159.59,31.2,152,30.89,144.35,30.89ZM50.44,66.06c-2.89,5.24-5.08,9.32-7.38,13.33s-2,7.76,1.49,10.77,7.29,3.1,11,.48c3.94-2.77,4.14-6.74,2.38-10.66C56,75.63,53.43,71.55,50.44,66.06ZM78.13,5.59c-4.29,4-4,52.7,0,56.11ZM60.48,55.32c3.55-3.87,3.47-38.14,0-42.43Zm31.14.34c3.85-4.93,3.56-39,0-42.66Zm17.74-7.4V19.41C105.49,23,105.35,42.76,109.36,48.26ZM47,23.39c-4.49,3.78-4.24,18.28,0,20.87Z"/><path d="M78.48,100.77c8.48,0,17-.06,25.45,0a54.83,54.83,0,0,1,7.21.8c5.23.77,8.09,3.36,7.15,9.11-1.29,7.86,1.66,13.87,6.88,20,13,15.19,20,33.09,20.12,53.24.31,39-23,64.46-61.91,67-15,1-30.2,1.46-44.51-4.74-20-8.68-33-23-37.24-45.06-5.32-28,2.58-52,20.6-73.12a19.07,19.07,0,0,0,5-15c-.71-9.66-.39-9.78,9.29-10.4q21-1.33,42-2.74Zm40.29,31.13c-.23,3.07-.37,4.57-.45,6.08-.36,7.07-4.88,11.86-11.2,11.85-6,0-10.6-4.73-11-11.54-.16-2.59.19-5.25-.25-7.78-.23-1.34-1.64-2.48-2.53-3.72-.69,1.22-1.93,2.4-2,3.65-.24,5,0,10.05-.14,15.07-.15,7.16-4.54,11.93-10.94,12S69.18,153,68.9,145.9c-.18-4.5-.11-9,0-13.51.13-4.1-1.48-6-5.79-6-8.84.16-17.68.22-26.51-.06a11.51,11.51,0,0,0-9.88,4.48C11,149.22,3.34,170.18,6,194.54c2.13,19.68,11.37,35,29.15,43.79,22.24,11,45.63,10.5,68.71,2.94a48.85,48.85,0,0,0,30.75-28.49c7.33-18.12,7.26-36.92.15-55.31C131.27,148.47,126.72,140,118.77,131.9ZM71.3,105.17l0,.83c-8,.35-15.92.64-23.87,1.08a110.55,110.55,0,0,0-11.35,1.21c-1.07.18-2,1.45-2.93,2.21,1,.85,1.84,2.13,3,2.45a20.55,20.55,0,0,0,5.16.22c4.67.06,9.37-.21,14,.19,12.34,1.09,19.31,8.93,19.31,21.31,0,3.63.06,7.27,0,10.91-.07,4,1.86,6.59,5.71,6.55,3.66,0,5.25-2.77,5.23-6.43-.06-6.76,0-13.51,0-20.27s2.71-10.66,8.92-13c5.26-2,7.16-.83,7.22,4.7.08,6.75.05,13.51,0,20.26,0,3.77,1.39,6.72,5.41,6.85s5.56-2.86,5.57-6.61c0-8.48-.09-17,.06-25.45.06-3.7-1.32-5.29-5.11-5.41C95.48,106.34,83.39,105.71,71.3,105.17Zm-13.76,15.4c-8.28-4.19-15.88-.89-23.44,0Z"/><path class="cls-1" d="M144.35,30.89c7.61,0,15.24.31,22.82-.16a14.64,14.64,0,0,0,8-3.52c4.62-4,9.84-4.47,13.87-.47a9.73,9.73,0,0,1-.24,13.52c-3.91,3.7-9.61,3.1-13.95-.83a11.78,11.78,0,0,0-7-3.09c-15.74-.25-31.48,0-47.22-.18-1.61,0-3.22-1.48-4.83-2.27,1.57-.92,3.1-2.58,4.69-2.63,8-.27,15.91-.13,23.87-.13Z"/><path class="cls-1" d="M50.44,66.06c3,5.49,5.53,9.57,7.49,13.92,1.76,3.92,1.56,7.89-2.38,10.66-3.71,2.62-7.61,2.46-11-.48s-3.8-6.75-1.49-10.77S47.55,71.3,50.44,66.06Z"/><path class="cls-1" d="M78.13,5.59V61.7C74.08,58.29,73.84,9.62,78.13,5.59Z"/><path class="cls-1" d="M60.48,55.32V12.89C64,17.18,64,51.45,60.48,55.32Z"/><path class="cls-1" d="M91.62,55.66V13C95.18,16.67,95.47,50.73,91.62,55.66Z"/><path class="cls-1" d="M109.36,48.26c-4-5.5-3.87-25.24,0-28.85Z"/><path class="cls-1" d="M47,23.39V44.26C42.8,41.67,42.55,27.17,47,23.39Z"/><path class="cls-1" d="M118.77,131.9c8,8.07,12.5,16.57,16,25.57,7.11,18.39,7.18,37.19-.15,55.31a48.85,48.85,0,0,1-30.75,28.49c-23.08,7.56-46.47,8.09-68.71-2.94-17.78-8.81-27-24.11-29.15-43.79-2.64-24.36,5-45.32,20.77-63.69a11.51,11.51,0,0,1,9.88-4.48c8.83.28,17.67.22,26.51.06,4.31-.07,5.92,1.86,5.79,6-.14,4.5-.21,9,0,13.51.28,7.1,4.93,11.74,11.35,11.64s10.79-4.87,10.94-12c.1-5-.1-10.06.14-15.07.06-1.25,1.3-2.43,2-3.65.88,1.24,2.29,2.38,2.52,3.72.44,2.53.09,5.19.25,7.78.42,6.81,5,11.54,11,11.54,6.32,0,10.84-4.78,11.2-11.85C118.4,136.47,118.54,135,118.77,131.9Zm-45.62,33v0c-17.85,0-35.7.06-53.56,0-3.72,0-5.92.84-5.85,5.14.15,10.39.1,20.79.06,31.19,0,3.65,1.47,5.31,5.3,5.3q54.08-.12,108.16,0c3.88,0,5.67-1.56,5.61-5.6-.14-9.71-.29-19.42.06-29.12.18-5.17-1.43-7-6.75-6.91C108.51,165.1,90.83,164.93,73.15,164.93Z"/><path class="cls-1" d="M71.3,105.17c12.09.54,24.18,1.17,36.28,1.56,3.79.12,5.17,1.71,5.11,5.41-.15,8.48,0,17-.06,25.45,0,3.75-1.42,6.75-5.57,6.61s-5.42-3.08-5.41-6.85c0-6.75.06-13.51,0-20.26-.06-5.53-2-6.71-7.22-4.7-6.21,2.38-8.89,6.27-8.92,13s-.06,13.51,0,20.27c0,3.66-1.57,6.38-5.23,6.43-3.85,0-5.78-2.58-5.71-6.55.08-3.64,0-7.28,0-10.91,0-12.38-7-20.22-19.31-21.31-4.64-.4-9.34-.13-14-.19a20.55,20.55,0,0,1-5.16-.22c-1.13-.32-2-1.6-3-2.45,1-.76,1.86-2,2.93-2.21a110.55,110.55,0,0,1,11.35-1.21c8-.44,15.91-.73,23.87-1.08Z"/><path class="cls-1" d="M57.54,120.57H34.1C41.66,119.68,49.26,116.38,57.54,120.57Z"/><path d="M73.15,164.93c17.68,0,35.36.17,53-.1,5.32-.09,6.93,1.74,6.75,6.91-.35,9.7-.2,19.41-.06,29.12.06,4-1.73,5.6-5.61,5.6q-54.08,0-108.16,0c-3.83,0-5.31-1.65-5.3-5.3,0-10.4.09-20.8-.06-31.19-.07-4.3,2.13-5.17,5.85-5.14,17.86.1,35.71,0,53.56,0Zm-.49,35.79c16.12,0,32.24-.16,48.35.1,4.62.07,6.63-1.06,6.35-6-.37-6.57-.27-13.17-.12-19.75.08-3.52-1.17-5-4.8-5q-49.12.1-98.26,0c-4.05,0-5.53,1.69-5.4,5.67.2,6.4.3,12.83,0,19.23-.25,4.71,1.69,5.89,6.08,5.84C40.77,200.61,56.72,200.73,72.66,200.72Z"/><path class="cls-1" d="M72.66,200.72c-15.94,0-31.89-.11-47.83.09-4.39.05-6.33-1.13-6.08-5.84.33-6.4.23-12.83,0-19.23-.13-4,1.35-5.67,5.4-5.67q49.13.1,98.26,0c3.63,0,4.88,1.47,4.8,5-.15,6.58-.25,13.18.12,19.75.28,4.95-1.73,6.08-6.35,6C104.9,200.56,88.78,200.72,72.66,200.72Zm-16.84-4.67a9.56,9.56,0,0,0,9.35-9.79c0-5.74-3.68-9.4-9.44-9.32s-10,4.28-9.82,9.81A9.87,9.87,0,0,0,55.82,196.05Zm24.95-8.47c-2.58-3.35-4.18-6-6.34-8-1-1-3.58-1.56-4.52-.93-1.93,1.28-.71,14.06,1.89,17.28.48-3.93.87-7.11,1.39-11.35L83.11,196l1.46-.83c.78-5.78,1.24-11.55-.23-17.26l-1.7-.15Zm-53.58,7.89c4.14-1.84.8-8.2,7-8.18s3.19,6,6.92,8.46V178c-5.79,8.57-6.23,8.57-13.91-.86Zm74,.32.19-2.29a17.39,17.39,0,0,1-3.18-.91c-1.5-.73-2.88-1.7-4.31-2.56,1.48-.85,2.93-1.75,4.43-2.54.91-.49,1.89-.83,2.85-1.24-1.34-1.41-2.66-1.46-3.78-2A21.41,21.41,0,0,1,94.06,182a29.77,29.77,0,0,1,3.6-2.12,18,18,0,0,1,3.47-.78l-.31-2c-3.28.5-9.22.56-9.38,1.56a46.15,46.15,0,0,0,.3,16.07C91.94,195.63,97.91,195.45,101.21,195.79Zm11.5-.52,7.13-17.1-.9-1-5.94,6.2-5.74-6.19-1.07,1Z"/><path d="M55.82,196.05a9.87,9.87,0,0,1-9.91-9.3c-.16-5.53,4.05-9.74,9.82-9.81s9.46,3.58,9.44,9.32A9.56,9.56,0,0,1,55.82,196.05Zm-.24-3.22c4.31-.11,6-2.91,5.86-6.51s-1.57-6.61-5.83-6.55-5.73,2.85-5.78,6.55S51.58,192.56,55.58,192.83Z"/><path d="M80.77,187.58l1.87-9.82,1.7.15c1.47,5.71,1,11.48.23,17.26l-1.46.83-9.92-11.42c-.52,4.24-.91,7.42-1.39,11.35-2.6-3.22-3.82-16-1.89-17.28.94-.63,3.53,0,4.52.93C76.59,181.62,78.19,184.23,80.77,187.58Z"/><path d="M27.19,195.47V177.11c7.68,9.43,8.12,9.43,13.91.86v17.78c-3.73-2.44-.74-8.43-6.92-8.46S31.33,193.63,27.19,195.47Z"/><path d="M101.21,195.79c-3.3-.34-9.27-.16-9.47-1.12a46.15,46.15,0,0,1-.3-16.07c.16-1,6.1-1.06,9.38-1.56l.31,2a18,18,0,0,0-3.47.78,29.77,29.77,0,0,0-3.6,2.12,21.41,21.41,0,0,0,3.35,2.33c1.12.51,2.44.56,3.78,2-1,.41-1.94.75-2.85,1.24-1.5.79-3,1.69-4.43,2.54,1.43.86,2.81,1.83,4.31,2.56a17.39,17.39,0,0,0,3.18.91Z"/><path d="M112.71,195.27l-6.52-17.07,1.07-1,5.74,6.19,5.94-6.2.9,1Z"/><path class="cls-1" d="M55.58,192.83c-4-.27-5.81-2.72-5.75-6.51s1.66-6.49,5.78-6.55,5.74,3.07,5.83,6.55S59.89,192.72,55.58,192.83Z"/></g></g></svg>