<svg xmlns="http://www.w3.org/2000/svg" viewBox="0 0 242.96 190.96"><defs><style>.cls-1{fill:none;}</style></defs><title>Fichier 12</title><g id="Calque_2" data-name="Calque 2"><g id="Calque_1-2" data-name="Calque 1"><path d="M152.89,60.57l3.89,4.4c2.7,3,3.69,5.56-1.59,6.81-3.35.79-3.79,2.91-2.82,6.1,2.29,7.6,4.42,15.26,6.24,23,.81,3.43,1.7,4.66,5.29,2.83,13.41-6.83,22.07-2.91,26.1,11.37.41,1.46,2.23,3.59,3.41,3.61,13.49.14,22.92,7.87,30.85,17.25,6.45,7.62,11.71,16.3,17,24.82,3.16,5.08,2,8.18-3.95,9.79-18.35,5-36.85,7.65-55.32.3-.67-.27-1.39-.4-2.76-.79-2,7.73-6.08,13.52-14.38,15-8.61,1.56-13-4.64-17.76-9.7-.73.12-1.26.05-1.44.27-10,12.46-24,15.33-38.83,15.31-11.75,0-23.34-1-34.73-5-7.94-2.79-17-2.35-25-5.06C20.68,172,4.91,153.89,1,125.72A91.54,91.54,0,0,1,6.6,78.24c1.57-3.94.7-5.62-3-6.64-4.91-1.34-3.78-4.1-1.15-6.55,5.13-4.8,10.42-9.44,15.8-14,2.67-2.24,4.34-4.54,3.58-8.28-.32-1.58-.34-4,.6-4.93,4.45-4.59,2.23-8.94.29-13.56-2.79-6.65-1.42-8.66,5.77-8.66,29.67,0,59.33-.1,89,.08,4.57,0,7.26-1.36,9.39-5.48C131.18,1.9,137.72-1.2,146,.41c7.63,1.47,12.74,7.2,13.31,16.26.3,4.69,1.24,6.82,6.48,7.65,9.91,1.57,16,9.44,15.53,18.2s-8.86,16-19.83,17.34C159.11,60.15,156.69,60.26,152.89,60.57ZM140.27,94.18c-3.22-4.41-6.12-8.23-8.85-12.17-3.09-4.45-5.11-4.59-7.6-.3-.48.82-1,1.62-1.5,2.42-3.92,6-10.38,5.6-13.94-.59-.78-1.35-3.56-2.71-5-2.34-6.22,1.62-11.1,0-15.55-4.42-7.21-7.09-9.09-7-16.46-.07s-14.71,6.93-22,0-9.06-7-16.47.17c-4.44,4.29-9.47,6.5-15.49,4-4.29-1.75-6,.28-6.94,3.89-1.35,5.13-3,10.23-3.8,15.45-2.49,16-1,31.89,6.68,46,11.42,21,30.32,31.13,54,32.73,3.56.25,5.49-1.12,7-4.32,7.23-14.84,16.25-28.29,30.15-37.89,1.43-1,3-2.84,3.16-4.45,1.27-10.69,7.63-15,17.8-15.31,1.17,0,3.32-2.5,3.22-3.7C127.93,103.71,131.43,97,140.27,94.18ZM121,51.28a31.43,31.43,0,0,0-4.6-.81q-42.45-.09-84.91,0a8.86,8.86,0,0,0-5.23,1.65C21.49,55.91,17,60,12.54,64.14c-.92.86-1.82,2.77-1.49,3.8C13.5,75.51,23.17,77.75,29,72.25c9.11-8.63,15.54-8.66,24.42-.11,5.41,5.21,8.58,5.22,14.11,0,9.1-8.57,15.13-8.55,24.39.09,5.41,5,8.37,5.07,13.71.18,1.68-1.54,3.21-3.38,5.16-4.45C117.39,64.38,118,57.58,121,51.28ZM29.26,21.77c1.65,10.54,2.13,11,10.86,11q37.92,0,75.84,0c3.32,0,7,.94,6.71-4.84-.22-4.67-1.23-6.67-6.47-6.62-27,.25-54,.11-81,.13C33.37,21.44,31.53,21.64,29.26,21.77Zm155.39,108c3.41,2.8,6.59,4.56,10.19.2.62-.74,2.62-.34,4-.47a27,27,0,0,1,.13,4.21c-.08.65-1.18,1.2-1.24,1.84-.14,1.76-.61,4.05.28,5.17.67.85,3.28.56,4.89.18,1.4-.32,2.53-1.79,3.93-2.17a24.38,24.38,0,0,1,5.15-.34c-.59,1.74-.74,3.88-1.88,5.11s-3.29,1.65-5,2.42l1.69,2.39c4.65,2,9.41,3.76,13.88,6.09,1.7.89,2.72,3.07,4,4.66-2.17.3-4.49,1.21-6.48.74-3.26-.78-6.31-2.46-10.28-4.1.31,2.63.78,3.85.49,4.83a49.33,49.33,0,0,1-2.41,5.68,32,32,0,0,1-3.7-4.84A87.88,87.88,0,0,1,199,152.8c-4.53,5-8.16,9.08-12.25,13.65,17.54,5.31,33.28,2.92,49.75-2.1-8.18-15.48-17.32-28.8-32.2-37-3.35-1.85-7.57-2.3-11.46-2.91S185.83,125.5,184.65,129.78Zm-54.57,50.73-14.47-12.43c-1,3.74-1.65,6.95-2.72,10-.42,1.21-1.75,2.09-2.67,3.12-1-1.11-2.61-2.05-3-3.36-.53-1.69-.13-3.66-.13-6.86-4.43,2-8,3.89-11.77,5.16-1.42.47-3.33-.5-5-.82.83-1.48,1.42-3.2,2.57-4.37,1-1,2.66-1.37,4-2.09,4-2.16,8-4.35,12.66-6.9-2.5-1.76-4.19-2.49-5.18-3.76-1.12-1.45-1.61-3.39-2.38-5.12,1.78,0,3.64-.25,5.3.21,2.51.7,4.81,2.29,7.33,2.78a5,5,0,0,0,4.23-1.73c.55-.84-.31-3-1.09-4.2-1.13-1.72-2.94-3-4.14-4.67-3.11-4.36-6.19-3.82-9.93-.67-10.68,9-17.93,20.47-24.17,32.71-1.72,3.37,0,5,3.25,5.51,4.5.71,9,1.44,13.53,1.87C107.73,186,119,185.32,130.08,180.51ZM181,156.76c7.28.08,11.85-3.83,11.81-10.12,0-5.61-6.84-10.76-14.52-11q-11.94-.33-12.8,12.13C165.18,151.63,173.89,156.67,181,156.76ZM157.64,117.2c-1.94-4.68-3.2-9-5.45-12.77-2.48-4.15-6.48-5.3-11.34-3.66s-6.15,5.36-6.25,9.7c-.14,6,2.87,10.06,7.85,13.45,3.59,2.44,7.22,3.37,10.44,1.25C155.09,123.72,155.94,120.22,157.64,117.2Zm-29.31,27.05c2.69-1.34,6.93-2.74,10.28-5.31,3.74-2.87,2.74-8.72-1.14-11.49-5.43-3.89-11.42-5.19-17.75-3.29-4.92,1.48-6.36,5.83-6,10.42C114,139.4,121.19,144.36,128.33,144.25ZM76.91,39c-14.42,0-28.85-.09-43.26.11-1.83,0-3.64,1.57-5.45,2.41,1.77.89,3.54,2.53,5.33,2.54q43,.25,86,0c1.81,0,3.6-1.6,5.4-2.46-1.76-.87-3.51-2.47-5.28-2.5C105.37,38.93,91.14,39,76.91,39Zm84.41,87c.2,2.69,2.33,5.07,6.7,5,7.09-.07,15.4-7.08,15.43-14.08,0-3-2.11-6.91-4.52-8.84-1.94-1.56-6-1.61-8.7-.84C161.53,109.75,162.2,117.61,161.32,126ZM145,158.56a42.36,42.36,0,0,0,.27-5.56c-.41-4.08-4.38-7.48-7.74-6.26-6.23,2.26-11.4,5.87-13.74,12.59-1.49,4.29-.67,7.75,2.81,10.69,3.72,3.15,7.65,3,11.59.71C143.23,167.82,146.16,163.69,145,158.56Zm27.4,9.76c0-6.39-8.76-14.81-15.25-14.95-3.9-.09-6.27,1.21-6.05,5.42.19,3.76.06,7.64,1,11.23,1.6,6.18,6.86,9.67,12.12,8.82S172.47,174.22,172.44,168.32ZM156.26,55.16l.48-1.1c2.26-.26,4.54-.37,6.77-.81,7.17-1.41,11.81-6.61,11.45-12.66s-5.5-10.2-13.18-10.6c-9.12-.48-16.63,3-23,9.28-4.11,4-4.09,6.73.89,9.36C144.91,51.38,150.71,53,156.26,55.16ZM114.59,80.39l2.32,1.1c2.12-4.26,4.07-8.63,6.43-12.76a100.17,100.17,0,0,1,5.95-8.37c1.42,3.23,3.09,6.37,4.22,9.69,1.9,5.58,3.1,11.48,8.78,16.11.11-1.77.45-2.65.15-3.12-5.24-8.06-6.78-17-7.18-26.45-.12-2.76-2.88-5.42-5.26-9.58C124.26,59.43,119.43,69.91,114.59,80.39Zm46.8,59.11c0-4.29-3.73-8.18-7.81-8.14-3.86,0-8,4.22-8.1,8.11a8,8,0,0,0,8.09,7.8C158.4,147.31,161.39,144.34,161.39,139.5ZM151.12,23.9c1.07-.75,1.91-1,2.16-1.57,1.8-3.92-.58-11.51-4.39-14.32-4.63-3.42-9.5-3-13.84,1.12-5.45,5.19-8.31,18-5.4,24.93.4,1,1.63,1.56,3.72,3.45-.66-3.27-1-4.85-1.29-6.43-1.35-6.88-.15-13.4,4.38-18.65a9.72,9.72,0,0,1,7.83-2.63c2.12.38,4.32,3.23,5.41,5.51S150.65,20.64,151.12,23.9Zm-14.36-.41,3.77,4.35c1.39-2.61,3.09-5.13,4-7.9.32-1-1.31-2.6-2.06-3.93Zm6.36,47,1.84.65c1.13-1.48,3.48-3.41,3.14-4.34-.74-2-2.87-3.51-4.42-5.21l-1.61,1Z"/><path class="cls-1" d="M140.27,94.18c-8.84,2.81-12.34,9.53-11.56,19.12.1,1.2-2.05,3.66-3.22,3.7-10.17.35-16.53,4.62-17.8,15.31-.19,1.61-1.73,3.46-3.16,4.45-13.9,9.6-22.92,23.05-30.15,37.89-1.56,3.2-3.49,4.57-7,4.32-23.67-1.6-42.57-11.75-54-32.73-7.7-14.13-9.17-30-6.68-46C7.48,95,9.11,89.9,10.46,84.77c.95-3.61,2.65-5.64,6.94-3.89,6,2.46,11.05.25,15.49-4,7.41-7.14,9.14-7.12,16.47-.17s14.69,7,22,0,9.25-7,16.46.07c4.45,4.37,9.33,6,15.55,4.42,1.4-.37,4.18,1,5,2.34,3.56,6.19,10,6.62,13.94.59.52-.8,1-1.6,1.5-2.42,2.49-4.29,4.51-4.15,7.6.3C134.15,86,137.05,89.77,140.27,94.18ZM31.15,110.94c0-2.09,0-4.18,0-6.27-.09-5.31-2.82-8.78-7.52-9-5-.22-8.58,2.13-9.18,7.34a86.32,86.32,0,0,0-.58,14.19c1,18.18,7.34,33.66,23.26,44,4.68,3.05,9.88,2.55,12.77-1.22a8.45,8.45,0,0,0-2.23-12.49C34.17,138.81,31.18,125.56,31.15,110.94Z"/><path class="cls-1" d="M121,51.28c-2.92,6.3-3.57,13.1-10.2,16.7-2,1.07-3.48,2.91-5.16,4.45-5.34,4.89-8.3,4.86-13.71-.18-9.26-8.64-15.29-8.66-24.39-.09-5.53,5.2-8.7,5.19-14.11,0-8.88-8.55-15.31-8.52-24.42.11-5.8,5.5-15.47,3.26-17.92-4.31-.33-1,.57-2.94,1.49-3.8,4.43-4.16,9-8.23,13.68-12a8.86,8.86,0,0,1,5.23-1.65q42.45-.12,84.91,0A31.43,31.43,0,0,1,121,51.28Z"/><path class="cls-1" d="M29.26,21.77c2.27-.13,4.11-.33,6-.33,27,0,54,.12,81-.13,5.24,0,6.25,2,6.47,6.62.26,5.78-3.39,4.84-6.71,4.84q-37.92,0-75.84,0C31.39,32.79,30.91,32.31,29.26,21.77Z"/><path class="cls-1" d="M184.65,129.78c1.18-4.28,4.16-5.93,8.17-5.31s8.11,1.06,11.46,2.91c14.88,8.17,24,21.49,32.2,37-16.47,5-32.21,7.41-49.75,2.1,4.09-4.57,7.72-8.61,12.25-13.65a87.88,87.88,0,0,0,3.33,8.58,32,32,0,0,0,3.7,4.84,49.33,49.33,0,0,0,2.41-5.68c.29-1-.18-2.2-.49-4.83,4,1.64,7,3.32,10.28,4.1,2,.47,4.31-.44,6.48-.74-1.32-1.59-2.34-3.77-4-4.66-4.47-2.33-9.23-4.1-13.88-6.09l-1.69-2.39c1.7-.77,3.83-1.15,5-2.42s1.29-3.37,1.88-5.11a24.38,24.38,0,0,0-5.15.34c-1.4.38-2.53,1.85-3.93,2.17-1.61.38-4.22.67-4.89-.18-.89-1.12-.42-3.41-.28-5.17.06-.64,1.16-1.19,1.24-1.84a27,27,0,0,0-.13-4.21c-1.35.13-3.35-.27-4,.47C191.24,134.34,188.06,132.58,184.65,129.78Z"/><path class="cls-1" d="M130.08,180.51c-11.1,4.81-22.35,5.51-33.8,4.4-4.53-.43-9-1.16-13.53-1.87-3.22-.5-5-2.14-3.25-5.51,6.24-12.24,13.49-23.71,24.17-32.71,3.74-3.15,6.82-3.69,9.93.67,1.2,1.68,3,2.95,4.14,4.67.78,1.2,1.64,3.36,1.09,4.2a5,5,0,0,1-4.23,1.73c-2.52-.49-4.82-2.08-7.33-2.78-1.66-.46-3.52-.17-5.3-.21.77,1.73,1.26,3.67,2.38,5.12,1,1.27,2.68,2,5.18,3.76-4.67,2.55-8.65,4.74-12.66,6.9-1.34.72-3,1.07-4,2.09-1.15,1.17-1.74,2.89-2.57,4.37,1.68.32,3.59,1.29,5,.82,3.78-1.27,7.34-3.17,11.77-5.16,0,3.2-.4,5.17.13,6.86.4,1.31,2,2.25,3,3.36.92-1,2.25-1.91,2.67-3.12,1.07-3.07,1.74-6.28,2.72-10Z"/><path class="cls-1" d="M181,156.76c-7.07-.09-15.78-5.13-15.51-9q.87-12.48,12.8-12.13c7.68.22,14.49,5.37,14.52,11C192.81,152.93,188.24,156.84,181,156.76Z"/><path class="cls-1" d="M157.64,117.2c-1.7,3-2.55,6.52-4.75,8-3.22,2.12-6.85,1.19-10.44-1.25-5-3.39-8-7.47-7.85-13.45.1-4.34,1.39-8.07,6.25-9.7s8.86-.49,11.34,3.66C154.44,108.18,155.7,112.52,157.64,117.2Z"/><path class="cls-1" d="M128.33,144.25c-7.14.11-14.32-4.85-14.66-9.67-.31-4.59,1.13-8.94,6-10.42,6.33-1.9,12.32-.6,17.75,3.29,3.88,2.77,4.88,8.62,1.14,11.49C135.26,141.51,131,142.91,128.33,144.25Z"/><path class="cls-1" d="M76.91,39c14.23,0,28.46-.1,42.69.11,1.77,0,3.52,1.63,5.28,2.5-1.8.86-3.59,2.45-5.4,2.46q-43,.24-85.95,0c-1.79,0-3.56-1.65-5.33-2.54,1.81-.84,3.62-2.38,5.45-2.41C48.06,38.94,62.49,39,76.91,39Z"/><path class="cls-1" d="M161.32,126c.88-8.41.21-16.27,8.91-18.74,2.7-.77,6.76-.72,8.7.84,2.41,1.93,4.54,5.81,4.52,8.84,0,7-8.34,14-15.43,14.08C163.65,131.09,161.52,128.71,161.32,126Z"/><path class="cls-1" d="M145,158.56c1.12,5.13-1.81,9.26-6.81,12.17-3.94,2.29-7.87,2.44-11.59-.71-3.48-2.94-4.3-6.4-2.81-10.69,2.34-6.72,7.51-10.33,13.74-12.59,3.36-1.22,7.33,2.18,7.74,6.26A42.36,42.36,0,0,1,145,158.56Z"/><path class="cls-1" d="M172.44,168.32c0,5.9-2.9,9.65-8.2,10.52s-10.52-2.64-12.12-8.82c-.92-3.59-.79-7.47-1-11.23-.22-4.21,2.15-5.51,6.05-5.42C163.68,153.51,172.41,161.93,172.44,168.32Z"/><path class="cls-1" d="M156.26,55.16c-5.55-2.13-11.35-3.78-16.56-6.53-5-2.63-5-5.32-.89-9.36,6.34-6.25,13.85-9.76,23-9.28,7.68.4,12.82,4.47,13.18,10.6s-4.28,11.25-11.45,12.66c-2.23.44-4.51.55-6.77.81Zm-.75-3.57c3.8-.81,6.47-1.06,8.9-2,4.19-1.55,8.18-3.67,7.62-9.15-.44-4.28-4.94-7.39-10.56-7.62-7.4-.32-13.65,2.55-19.09,7.26-3,2.59-2.86,5.51.84,7.16C147.44,49.15,152,50.37,155.51,51.59Z"/><path class="cls-1" d="M114.59,80.39c4.84-10.48,9.67-21,15.41-33.38,2.38,4.16,5.14,6.82,5.26,9.58C135.66,66,137.2,75,142.44,83c.3.47,0,1.35-.15,3.12-5.68-4.63-6.88-10.53-8.78-16.11-1.13-3.32-2.8-6.46-4.22-9.69a100.17,100.17,0,0,0-5.95,8.37c-2.36,4.13-4.31,8.5-6.43,12.76Z"/><path class="cls-1" d="M161.39,139.5c0,4.84-3,7.81-7.82,7.77a8,8,0,0,1-8.09-7.8c.06-3.89,4.24-8.07,8.1-8.11C157.66,131.32,161.4,135.21,161.39,139.5Z"/><path class="cls-1" d="M151.12,23.9c-.47-3.26-.3-6.23-1.42-8.59s-3.29-5.13-5.41-5.51a9.72,9.72,0,0,0-7.83,2.63c-4.53,5.25-5.73,11.77-4.38,18.65.31,1.58.63,3.16,1.29,6.43-2.09-1.89-3.32-2.49-3.72-3.45-2.91-6.89-.05-19.74,5.4-24.93C139.39,5,144.26,4.59,148.89,8c3.81,2.81,6.19,10.4,4.39,14.32C153,22.87,152.19,23.15,151.12,23.9Z"/><path class="cls-1" d="M136.76,23.49,142.45,16c.75,1.33,2.38,2.95,2.06,3.93-.89,2.77-2.59,5.29-4,7.9Z"/><path class="cls-1" d="M143.12,70.52l-1.05-7.86,1.61-1c1.55,1.7,3.68,3.2,4.42,5.21.34.93-2,2.86-3.14,4.34Z"/><path d="M31.15,110.94c0,14.62,3,27.87,16.51,36.57A8.45,8.45,0,0,1,49.89,160c-2.89,3.77-8.09,4.27-12.77,1.22-15.92-10.35-22.27-25.83-23.26-44A86.32,86.32,0,0,1,14.44,103c.6-5.21,4.15-7.56,9.18-7.34,4.7.21,7.43,3.68,7.52,9C31.18,106.76,31.15,108.85,31.15,110.94Zm-6.88-9.19-2.4-.3c-.75,2-2.26,4.14-2.12,6.12.61,8.27,1.09,16.64,2.78,24.73,2.07,9.85,8.59,17.15,16.56,23,1.33,1,3.65.59,5.52.83-.74-1.68-1.13-3.66-2.29-5-2.76-3.1-6.22-5.6-8.77-8.83-7.76-9.83-8.24-21.63-8.47-33.45C25,106.49,24.55,104.12,24.27,101.75Z"/><path d="M155.51,51.59c-3.55-1.22-8.07-2.44-12.29-4.31-3.7-1.65-3.82-4.57-.84-7.16,5.44-4.71,11.69-7.58,19.09-7.26,5.62.23,10.12,3.34,10.56,7.62.56,5.48-3.43,7.6-7.62,9.15C162,50.53,159.31,50.78,155.51,51.59ZM165.8,40c-5.91-1.07-10.84-2-15.1,2.83C156.86,46.14,162.26,45.33,165.8,40Z"/><path class="cls-1" d="M24.27,101.75c.28,2.37.76,4.74.81,7.12.23,11.82.71,23.62,8.47,33.45,2.55,3.23,6,5.73,8.77,8.83,1.16,1.3,1.55,3.28,2.29,5-1.87-.24-4.19.15-5.52-.83-8-5.83-14.49-13.13-16.56-23-1.69-8.09-2.17-16.46-2.78-24.73-.14-2,1.37-4.07,2.12-6.12Z"/><path class="cls-1" d="M165.8,40c-3.54,5.34-8.94,6.15-15.1,2.83C155,38,159.89,38.92,165.8,40Z"/></g></g></svg>