<svg xmlns="http://www.w3.org/2000/svg" viewBox="0 0 150.52 195.28"><defs><style>.cls-1{fill:none;}</style></defs><title>Fichier 5</title><g id="Calque_2" data-name="Calque 2"><g id="Calque_1-2" data-name="Calque 1"><path d="M12.06,64.42c-5.93-11.27-4.16-16.6,7.51-21-.69-1.35-1.37-2.63-2-3.92-3.87-7.8.21-16,8.85-16.12,6.53-.08,10-2.47,13.36-7.91C44.83,7.27,53.51,3.22,62.64,1.42,76-1.22,89.29-.62,101.25,7c3.31,2.11,7.13,4.55,8.81,7.81,3.27,6.37,7.59,8.52,14.63,8.66,7.87.16,11.8,8.64,8.23,15.86-.66,1.34-1.45,2.62-2.21,4,10.44,3.91,14.67,9.45,7.67,21.16,12.83,3.21,16.24,12.68,6.52,22.68,9.61,9.84,6.56,19.19-6.53,22.71,6.74,10.88,3.41,16.93-7.34,21,5.51,13.28,5,14.54-9.62,21.6a4.58,4.58,0,0,0,.13,1.49c5.35,11.2,1.88,17.36-10.42,18.83-1.57.19-4,1.4-4.31,2.62-2.88,10.2-10.44,15.55-19.76,18.06-12.12,3.26-24.28,2.62-34.61-5.51C49,185.2,47,180.6,44.14,177c-1.34-1.67-3-3.95-4.84-4.21-12.87-1.88-15.95-7.3-10.41-19.07a4.44,4.44,0,0,0,.13-1.47c-14.49-6-15.39-8-9.63-21.4C8.12,126.94,5.66,120,12.25,109.65,7.24,108.22,2.05,107,.5,101c-1.48-5.7.63-10.13,5.18-13.47C-3.57,77.63-1.57,67.73,12.06,64.42ZM74.9,146.09q21.8,0,43.59,0c7.13,0,10.39-1.93,10.26-6-.13-3.86-3.31-5.7-10.07-5.7q-43.84,0-87.7,0c-1.54,0-3.46-.28-4.55.5-1.91,1.38-4.78,3.65-4.58,5.21.27,2.08,2.87,4.13,4.9,5.61,1.05.76,3,.35,4.56.36Q53.11,146.12,74.9,146.09Zm.36-96.5c-10.57,0-21.13,0-31.69,0-7.79,0-15.6-.17-23.36.28-2,.11-4.45,1.94-5.46,3.69C14,54.81,14.82,57.91,16,59c1.46,1.32,4,1.87,6.15,1.91q16.61.27,33.24,0a26.91,26.91,0,0,0,8-1.46c7.44-2.5,14.72-3.06,22.38-.6a49.67,49.67,0,0,0,13.64,2.06c10,.28,20.08.11,30.12,0,3.73,0,6.45-1.6,6.47-5.8s-2.91-5.12-6.24-5.47a41.2,41.2,0,0,0-4.16-.08Zm.11,65.29v0c7.1,0,14.19,0,21.29,0,3.79,0,5.73-1.88,5.7-5.77-.06-7.1.22-14.2-.11-21.29C101.7,75.66,91.43,64.49,80,63.14c-14.48-1.71-26.77,5.48-29.75,19-1.87,8.48-1.34,17.48-2,26.23-.38,4.78,1.84,6.62,6.36,6.57C61.52,114.83,68.44,114.88,75.37,114.88Zm.13-86.7v0q-21.82,0-43.67,0c-7,0-10.42,2-10.33,5.91s3.3,5.61,10.1,5.61q43.93,0,87.87,0c1.55,0,3.51.32,4.55-.47,1.87-1.41,4.46-3.62,4.38-5.38s-2.67-4-4.64-5.3c-1.25-.81-3.37-.31-5.11-.31Q97.08,28.16,75.5,28.18Zm0,139H95.69c5.19,0,10.38-.07,15.56,0,3.94.07,7.29-1.28,7.5-5.4.24-4.72-3.49-5.79-7.49-5.84l-2.6,0h-68c-1.38,0-3.11-.35-4.06.33-1.88,1.35-4.77,3.46-4.61,5,.21,2.06,2.7,4.11,4.61,5.67.85.7,2.68.25,4.06.25Zm-.51-42.56v0c17.84,0,35.68,0,53.52,0,3.86,0,7.65-.71,7.52-5.75s-3.72-5.63-7.68-5.62c-5.54,0-11.09-.14-16.63.11-1.69.07-4,.78-4.86,2-2.61,3.84-6.21,4.64-10.37,4.63q-21.3,0-42.61,0c-4.18,0-7.82-.79-10.28-4.74a5.39,5.39,0,0,0-3.95-1.88c-6.41-.19-12.82-.14-19.23-.05-3.64.05-6,2.05-6.16,5.68s2.32,5.18,5.65,5.5c1.55.14,3.12.16,4.67.16Zm-33-102.09c3.46.19,5.64.41,7.82.41,15.58,0,31.17.11,46.75-.07,3.55-.05,7.09-1.07,10.64-1.65-2.73-3.16-4.9-7.26-8.3-9.33C86.3,4.31,72.82,3.33,59,8.23,52,10.69,46.06,14.45,41.92,22.58ZM75.06,190c8.78-.91,17.43-2.45,23.36-10.09,1.18-1.51,1.46-3.71,2.15-5.59-1.84-.57-3.68-1.61-5.53-1.63q-19.71-.19-39.41,0c-2,0-3.9.79-5.85,1.21.8,2.16,1.12,4.71,2.49,6.41C58.05,187.52,66.34,189.15,75.06,190ZM48,72c-1-.41-1.59-.9-2.2-.9-11.76,0-23.53-.24-35.26.24-1.82.07-3.51,3.35-5.26,5.14,1.94,1.83,3.8,5.14,5.85,5.25,9.82.57,19.7.39,29.56.16,1.42,0,3.22-1.49,4.09-2.79C46.18,77.05,46.93,74.55,48,72ZM102.73,71c1.26,3.13,2.18,4.81,2.61,6.61.91,3.71,3.18,4.68,6.81,4.59,8.66-.24,17.32-.1,26-.08,3.85,0,6.5-1.51,6.56-5.64S142,71.08,138.51,71c-6.58-.09-13.16-.07-19.75-.08C113.81,70.94,108.85,71,102.73,71ZM25.05,103.13c4.67,0,9.34,0,14,0,4.82,0,3.57-3.59,3.91-6.29.37-2.89-.4-4.66-3.77-4.63-9.16.08-18.32,0-27.48,0-3.68,0-6.25,1.8-6.3,5.41s2.44,5.49,6.16,5.47C16.07,103.1,20.56,103.12,25.05,103.13ZM125.3,92.25c-4.49,0-9,.13-13.48,0-4.23-.16-4.14,2.58-4.18,5.5s.15,5.54,4.25,5.48c9-.13,18-.08,27-.06,3.52,0,5.73-1.64,5.83-5.17.11-3.81-2.21-5.64-5.91-5.68C134.3,92.22,129.8,92.26,125.3,92.25Z"/><path d="M75.3,107.38c-4.84,0-9.68-.08-14.51,0-3.91.1-5.81-1.45-5.46-5.54.45-5.33.42-10.72,1.16-16A19.15,19.15,0,0,1,75.17,69.66c9.17-.23,17.89,6.44,19.22,15.54.86,5.93.6,12,.71,18.06.05,3.1-2,4.13-4.78,4.12C85.31,107.36,80.3,107.38,75.3,107.38ZM75,102.3c16.27,0,16.48-.17,14.77-14.12-.8-6.5-5.91-11.92-11.87-12.61-7.57-.88-13.78,2.48-15.66,9.57-1.21,4.56-1.09,9.54-1.08,14.32,0,1,2.19,2.56,3.49,2.71A93.9,93.9,0,0,0,75,102.3Z"/><path class="cls-1" d="M74.9,146.1q-21.8,0-43.59,0c-1.55,0-3.51.4-4.56-.36-2-1.48-4.63-3.53-4.9-5.61-.2-1.56,2.67-3.83,4.58-5.21,1.09-.78,3-.5,4.55-.5q43.86,0,87.7,0c6.76,0,9.94,1.84,10.07,5.7.13,4-3.13,6-10.26,6Q96.7,146.12,74.9,146.1Z"/><path class="cls-1" d="M75.26,49.59h50.38a41.2,41.2,0,0,1,4.16.08c3.33.35,6.26,1.36,6.24,5.47s-2.74,5.76-6.47,5.8c-10,.09-20.09.26-30.12,0a49.67,49.67,0,0,1-13.64-2.06c-7.66-2.46-14.94-1.9-22.38.6a26.91,26.91,0,0,1-8,1.46q-16.62.24-33.24,0c-2.11,0-4.69-.59-6.15-1.91-1.19-1.07-2-4.17-1.26-5.42,1-1.75,3.5-3.58,5.46-3.69,7.76-.45,15.57-.26,23.36-.28C54.13,49.57,64.69,49.59,75.26,49.59Z"/><path class="cls-1" d="M75.37,114.88c-6.93,0-13.85,0-20.77,0-4.52,0-6.74-1.79-6.36-6.57.69-8.75.16-17.75,2-26.23,3-13.48,15.27-20.67,29.75-19,11.41,1.35,21.68,12.52,22.23,24.63.33,7.09,0,14.19.11,21.29,0,3.89-1.91,5.76-5.7,5.77-7.1,0-14.19,0-21.29,0Zm-.07-7.5c5,0,10,0,15,0,2.81,0,4.83-1,4.78-4.12-.11-6,.15-12.13-.71-18.06-1.33-9.1-10-15.77-19.22-15.54A19.15,19.15,0,0,0,56.49,85.87c-.74,5.28-.71,10.67-1.16,16-.35,4.09,1.55,5.64,5.46,5.54C65.62,107.3,70.46,107.39,75.3,107.38Z"/><path class="cls-1" d="M75.5,28.18q21.59,0,43.15,0c1.74,0,3.86-.5,5.11.31,2,1.29,4.55,3.42,4.64,5.3s-2.51,4-4.38,5.38c-1,.79-3,.47-4.55.47q-43.93,0-87.87,0c-6.8,0-10-1.83-10.1-5.61s3.36-5.91,10.33-5.91q21.84,0,43.67,0Z"/><path class="cls-1" d="M75.45,167.23H40.69c-1.38,0-3.21.45-4.06-.25-1.91-1.56-4.4-3.61-4.61-5.67-.16-1.52,2.73-3.63,4.61-5,.95-.68,2.68-.33,4.06-.33h68l2.6,0c4,.05,7.73,1.12,7.49,5.84-.21,4.12-3.56,5.47-7.5,5.4-5.18-.08-10.37,0-15.56,0Z"/><path class="cls-1" d="M74.94,124.67H24.53c-1.55,0-3.12,0-4.67-.16-3.33-.32-5.79-1.94-5.65-5.5s2.52-5.63,6.16-5.68c6.41-.09,12.82-.14,19.23.05a5.39,5.39,0,0,1,3.95,1.88c2.46,4,6.1,4.75,10.28,4.74q21.3,0,42.61,0c4.16,0,7.76-.79,10.37-4.63.84-1.23,3.17-1.94,4.86-2,5.54-.25,11.09-.1,16.63-.11,4,0,7.56.72,7.68,5.62s-3.66,5.74-7.52,5.75c-17.84,0-35.68,0-53.52,0Z"/><path class="cls-1" d="M41.92,22.58C46.06,14.45,52,10.69,59,8.23c13.86-4.9,27.34-3.92,39.87,3.71,3.4,2.07,5.57,6.17,8.3,9.33-3.55.58-7.09,1.6-10.64,1.65-15.58.18-31.17.1-46.75.07C47.56,23,45.38,22.77,41.92,22.58Z"/><path class="cls-1" d="M75.06,190c-8.72-.89-17-2.52-22.79-9.68-1.37-1.7-1.69-4.25-2.49-6.41,1.95-.42,3.9-1.19,5.85-1.21q19.71-.18,39.41,0c1.85,0,3.69,1.06,5.53,1.63-.69,1.88-1,4.08-2.15,5.59C92.49,187.59,83.84,189.13,75.06,190Z"/><path class="cls-1" d="M48,72c-1.09,2.51-1.84,5-3.22,7.1-.87,1.3-2.67,2.76-4.09,2.79-9.86.23-19.74.41-29.56-.16-2.05-.11-3.91-3.42-5.85-5.25,1.75-1.79,3.44-5.07,5.26-5.14,11.73-.48,23.5-.28,35.26-.24C46.43,71.14,47,71.63,48,72Z"/><path class="cls-1" d="M102.73,71c6.12,0,11.08,0,16,0,6.59,0,13.17,0,19.75.08,3.52,0,6.25,1.39,6.18,5.4s-2.71,5.65-6.56,5.64c-8.66,0-17.32-.16-26,.08-3.63.09-5.9-.88-6.81-4.59C104.91,75.76,104,74.08,102.73,71Z"/><path class="cls-1" d="M25.05,103.13c-4.49,0-9,0-13.48,0-3.72,0-6.22-1.83-6.16-5.47s2.62-5.41,6.3-5.41c9.16,0,18.32,0,27.48,0,3.37,0,4.14,1.74,3.77,4.63-.34,2.7.91,6.34-3.91,6.29C34.39,103.1,29.72,103.13,25.05,103.13Z"/><path class="cls-1" d="M125.3,92.25c4.5,0,9,0,13.49,0,3.7,0,6,1.87,5.91,5.68-.1,3.53-2.31,5.17-5.83,5.17-9,0-18-.07-27,.06-4.1.06-4.28-2.47-4.25-5.48s0-5.66,4.18-5.5C116.31,92.38,120.81,92.25,125.3,92.25Z"/><path class="cls-1" d="M75,102.3a93.9,93.9,0,0,1-10.35-.13c-1.3-.15-3.48-1.76-3.49-2.71,0-4.78-.13-9.76,1.08-14.32,1.88-7.09,8.09-10.45,15.66-9.57,6,.69,11.07,6.11,11.87,12.61C91.5,102.13,91.29,102.34,75,102.3Z"/></g></g></svg>