<svg xmlns="http://www.w3.org/2000/svg" viewBox="0 0 187.41 173.1"><defs><style>.cls-1{fill:none;}</style></defs><title>Fichier 9</title><g id="Calque_2" data-name="Calque 2"><g id="Calque_1-2" data-name="Calque 1"><path d="M54.34,82.39c-4.27.83-7.9,1.81-11.6,2.2-7.28.77-11.41-1.23-13.18-6.34-2-5.89,1.37-9.82,5.49-13.2,2.72-2.23,5.71-4.12,9.14-6.56-4-2.52-7.42-4.43-10.56-6.75-4.58-3.38-6.46-8-4.45-13.53,1.49-4.11,7.38-6.71,13.13-5.88,3.48.5,6.91,1.4,11.15,2.28-.92-4.74-1.9-8.5-2.34-12.33-.79-6.8,1.32-11.32,6-12.81,5.67-1.8,10,.67,13.4,5.09,2.24,2.92,4.29,6,6.75,9.44,2.46-3.93,4.25-7.23,6.44-10.24C87,9.22,91.4,6.9,97.11,8.91c4.55,1.59,7,6.53,6.44,12.72-.21,2.21-.7,4.4-.86,5.36,8.34-5.36,16.73-11.84,26.05-16.48C142.1,3.85,156.8,1.25,171.64.06c6.59-.52,9.07,2.33,8.36,8.84-2.07,19.09-7,37.27-17.45,53.63a7.93,7.93,0,0,0-1.37,3.06c-.9,8-1.69,15.93-2.55,24.26a88.69,88.69,0,0,1,9.62-1.76c3.53-.3,7.3-.62,10.64.27,8.69,2.32,11.46,12.06,4.9,18.24-4.6,4.33-10.48,7.3-16.36,11.27a43.44,43.44,0,0,1,5.08,3.45c3.91,3.5,8.59,6.6,11.25,10.91,4.36,7.05-.82,15.5-9.17,15.83a39.76,39.76,0,0,1-10.06-1.36c-3.1-.69-6.09-1.88-10.16-3.18.35,2.19.67,3.69.83,5.2.53,4.88,1.93,9.9,1.21,14.6-.53,3.42-3.23,8-6.12,9.17-3.2,1.28-8.67.47-11.44-1.65-3.85-3-6.14-8-9.06-12.12-.93-1.3-1.75-2.67-2.63-4-1.2,1.31-2.5,2.54-3.59,3.94-2.23,2.83-4.16,5.91-6.55,8.59-4,4.42-9.1,5.84-14.5,3.49s-6.69-7.59-5.88-13c.78-5.2,2.23-10.3,3.83-17.4-4,1.78-7.74,2.38-9.93,4.53-14.13,13.78-31.2,15.06-48.89,10.94-12.46-2.9-24.53-7.65-36.57-12.11-5.51-2-6.54-6.41-3.08-10.94,12.72-16.6,27-31.43,46.9-39.53C53.67,91.26,54.33,87.43,54.34,82.39Zm16.3,43.8c-9.75-1.24-17.75,4.47-21.8,14.8-.67,1.71-2.8,2.85-4.25,4.26-.44-2.17-1.29-4.35-1.18-6.48s1.19-4.07,2.15-7c-3.12.36-5.17.45-7.15.85-3.53.72-7,1.87-10.55,2.33-1.32.17-2.83-1.07-4.25-1.66.93-1.19,1.62-2.92,2.84-3.46,2.4-1,5.09-1.43,7.65-2.13,5.41-1.49,10.81-3,16.72-4.67-3.31-3.51-5.77-5.67-7.59-8.28-.68-1,.15-3,.29-4.56,1.35.33,2.94.33,4,1.07,2.77,2,5,4.79,8,6.27,4.21,2.09,8.88,4.66,13.83-.14-5.09-4.84-10.84-8.89-14.57-14.32-2.92-4.25-5.14-4.11-8.68-2.24-15.06,8-26.82,19.76-37.34,32.9C7,135.94,6.51,138,10,139.51c18.44,8.14,37.29,14.34,57.82,11.05,4.26-.68,8.24-3.05,12.35-4.64,0-.57-.08-1.13-.13-1.7l-6.91-3.73c.08.55.17,1.1.25,1.64l-6.12,4c-.3-2.38-1.27-4.91-.78-7.12C67.4,134.66,69.17,130.5,70.64,126.19Zm59.23-71.56,12,4.63a4.57,4.57,0,0,0,1.6.58c2.64-.13,5.39-1,7.88-.45,4.94,1,7.25-1.35,9.36-5.25,7.41-13.75,10.88-28.66,13.37-43.89.54-3.35-1.48-4.09-4.06-3.77-5.84.72-11.72,1.32-17.45,2.58-13.06,2.88-25.65,7-36.36,15.47a49.64,49.64,0,0,0-4.44,4.63c13.7,1.13,17.22,8,13.25,19.62,2.91-2.52,5-4,6.65-5.83,4.92-5.7,4.86-12.44,3.93-19.44-.19-1.42,1.23-3.07,1.9-4.61,1.11,1.08,2.67,2,3.23,3.29a84,84,0,0,1,2.65,8.89,26.12,26.12,0,0,0,2.84-1.94c3.45-3.28,6.69-6.79,10.35-9.79,1.07-.88,3.28-.38,5-.51-.3,1.52-.12,3.41-1,4.46a97.34,97.34,0,0,1-7.23,7.28l-10.88,10.8c4.69,1.11,7.7,1.45,10.36,2.62,1.41.61,2.19,2.66,3.25,4.06-1.59.58-3.15,1.48-4.79,1.64-1.21.12-2.5-.79-3.78-1.12C140.59,46.85,133.92,49,129.87,54.63Zm-1.5,38.18c-3.11-8.25-5.79-16.27-9.2-24-1.41-3.18-4.26-6.63-8.53-5s-5,6.07-3.7,9.68a184.49,184.49,0,0,0,9.71,22.8c1,2.05,4.79,4.13,6.91,3.8C125.28,99.84,126.43,96,128.37,92.81Zm46.19.36c-12.29,1.1-21.25,5.31-29,12-1.14,1-2.09,3.57-1.57,4.71.7,1.55,2.91,3.45,4.45,3.43,10.18-.16,20.13-1.91,28.33-8.44,2.14-1.71,4.4-5.61,3.81-7.73S175.85,94,174.56,93.17Zm-63.62,18.49c.84-.61,2.74-1.38,3.51-2.77a4.91,4.91,0,0,0-.32-4.51c-7.36-8.36-16.44-14-27.63-15.29-2.3-.26-6.2,1.28-7,3s.55,5.67,2.24,7.35C89.48,107.14,99.46,110,110.94,111.66Zm22.3-14.22c.54.72,1.44,3.09,3,3.75,1.34.56,4-.36,5.22-1.53,7-6.93,12.38-15,13.58-25,.33-2.75-1.48-5.76-2.3-8.65-2.83,1-6.51,1.19-8.34,3.13C137.46,76.54,134.09,85.73,133.24,97.44Zm-1.94,42.19a40.29,40.29,0,0,0,8.23,23.58c1.63,2.14,5.16,2.83,7.82,4.18,1.28-2.73,3.81-5.55,3.64-8.18a44.14,44.14,0,0,0-11.66-27.05c-1-1.14-3.59-2.17-4.72-1.66-1.48.67-2.44,2.83-3.23,4.52C130.94,136,131.3,137.25,131.3,139.63Zm-6.44-5.3c-.54-.89-1.24-3.61-2.73-4.15s-4.48.3-5.87,1.56a42.9,42.9,0,0,0-13.71,25c-.44,2.6,1.1,6.45,3.08,8.18,1.05.91,5.76-.78,7.52-2.57C120.34,155,123.41,145.7,124.86,134.33Zm48.56,7.89c1.06-.6,4.35-1.38,5.05-3.18s-.41-5.34-1.95-6.92c-8-8.11-18.1-11.55-29.23-12.15a5.16,5.16,0,0,0-3.93,2.5c-.59,1.23-.4,3.71.5,4.64C151.54,135.07,160.45,140.93,173.42,142.22ZM84.13,138.5a50.38,50.38,0,0,0,28.26-12.64,5.79,5.79,0,0,0,1.36-4.85c-.26-1.18-2.26-2.7-3.57-2.79-10.72-.69-20.84,1.55-29.39,8.27-2,1.58-4,5.34-3.42,7.41S81.75,137,84.13,138.5ZM79.63,37.34l3.72,7.53C85.26,43.61,87.62,42.71,89,41c4.72-5.84,8.11-12.44,8.18-20.12,0-2.13-1.57-4.28-2.42-6.43-2.2,1.12-5.45,1.66-6.4,3.44C85,24.13,82.49,30.78,79.63,37.34ZM76.11,79.15l-3-8.21c-2.2,1.35-5.42,2.19-6.42,4.16a136.36,136.36,0,0,0-8,19.6c-.52,1.6,1.23,5.28,2.72,5.81s5.09-1,6-2.57C70.74,91.78,73.36,85.23,76.11,79.15Zm-14.79-18c-9.17,1.25-17,3.38-23.08,9.28-1.47,1.42-1.68,4.15-2.47,6.28,2.18.75,4.49,2.37,6.53,2.08a36,36,0,0,0,20.87-10.5c1.13-1.14,2.12-3.45,1.72-4.78S62.19,61.72,61.32,61.2Zm34.39-5.59c7-3.16,14.28-6.07,21.11-9.82,1.83-1,2.27-4.57,3.35-6.95-2.52-.73-5.6-2.76-7.46-2A193.57,193.57,0,0,0,92.42,47.59c-1,.6-1.86,3-1.49,4.24S93.28,53.79,95.71,55.61ZM75.6,38.41c-3.19-6.54-6.25-13.55-10.06-20.11-.93-1.6-4.36-1.75-6.64-2.57-.7,2.2-2.55,4.88-1.88,6.5a179.41,179.41,0,0,0,10,20c.84,1.48,3.61,1.86,5.49,2.75ZM57.83,56,65,52.68c-1.17-2-1.88-4.8-3.6-5.7a128.67,128.67,0,0,0-18.92-8.19c-2-.67-4.93,1.32-7.43,2.09,1.31,2.43,2,6,4,7.09C45.1,51.19,51.65,53.44,57.83,56Zm80.64,60.13a9.53,9.53,0,1,0-19-1.37c-.36,5.59,3.48,10.21,8.82,10.59A9.63,9.63,0,0,0,138.47,116.13ZM78.24,50.05a8.11,8.11,0,0,0-8.14,7.79c0,3.75,3.89,7.73,7.66,7.86,4.11.13,8-3.77,8-8A7.71,7.71,0,0,0,78.24,50.05ZM89.8,113.1c-4.61-3.49-9-6.39-12.88-9.9-2.86-2.6-4.32-1.41-6.53.66-2.63,2.47-2.26,4.37.09,6.62C75.33,115.1,82.62,116.25,89.8,113.1Zm48.77-49.49c-4.09-.69-7.84-1.52-11.62-1.78-.76,0-2.63,2.52-2.35,3.08,1.75,3.63,4,7,6,10.5,2.44-2.86,4.91-5.69,7.31-8.59C138.25,66.45,138.17,65.76,138.57,63.61ZM96.78,83.54c-3.52-4.68-6.15-8.49-9.16-12a4.36,4.36,0,0,0-4.06-.64c-1,.49-1.87,2.31-2,3.61C81.11,81.37,85.28,84.18,96.78,83.54Zm.39-24.49-6.41,4.73,7.32,7c1.21-2,3.26-4,3.35-6C101.5,63.16,99.11,61.48,97.17,59.05Z"/><path class="cls-1" d="M70.64,126.19c-1.47,4.31-3.24,8.47-4.21,12.82-.49,2.21.48,4.74.78,7.12l6.12-4c-.08-.54-.17-1.09-.25-1.64L80,144.22c.05.57.09,1.13.13,1.7-4.11,1.59-8.09,4-12.35,4.64-20.53,3.29-39.38-2.91-57.82-11.05-3.44-1.51-3-3.57-1.18-5.79,10.52-13.14,22.28-24.91,37.34-32.9,3.54-1.87,5.76-2,8.68,2.24,3.73,5.43,9.48,9.48,14.57,14.32-5,4.8-9.62,2.23-13.83.14-3-1.48-5.24-4.31-8-6.27-1.06-.74-2.65-.74-4-1.07-.14,1.55-1,3.58-.29,4.56,1.82,2.61,4.28,4.77,7.59,8.28-5.91,1.65-11.31,3.18-16.72,4.67-2.56.7-5.25,1.08-7.65,2.13-1.22.54-1.91,2.27-2.84,3.46,1.42.59,2.93,1.83,4.25,1.66,3.56-.46,7-1.61,10.55-2.33,2-.4,4-.49,7.15-.85-1,2.94-2.05,5-2.15,7s.74,4.31,1.18,6.48c1.45-1.41,3.58-2.55,4.25-4.26C52.89,130.66,60.89,125,70.64,126.19Z"/><path class="cls-1" d="M129.87,54.63c4-5.66,10.72-7.78,17.63-6.05,1.28.33,2.57,1.24,3.78,1.12,1.64-.16,3.2-1.06,4.79-1.64-1.06-1.4-1.84-3.45-3.25-4.06-2.66-1.17-5.67-1.51-10.36-2.62l10.88-10.8a97.34,97.34,0,0,0,7.23-7.28c.86-1.05.68-2.94,1-4.46-1.69.13-3.9-.37-5,.51-3.66,3-6.9,6.51-10.35,9.79a26.12,26.12,0,0,1-2.84,1.94,84,84,0,0,0-2.65-8.89c-.56-1.32-2.12-2.21-3.23-3.29-.67,1.54-2.09,3.19-1.9,4.61.93,7,1,13.74-3.93,19.44-1.62,1.87-3.74,3.31-6.65,5.83,4-11.64.45-18.49-13.25-19.62a49.64,49.64,0,0,1,4.44-4.63c10.71-8.44,23.3-12.59,36.36-15.47C158.31,7.8,164.19,7.2,170,6.48c2.58-.32,4.6.42,4.06,3.77-2.49,15.23-6,30.14-13.37,43.89-2.11,3.9-4.42,6.28-9.36,5.25-2.49-.52-5.24.32-7.88.45a4.57,4.57,0,0,1-1.6-.58Z"/><path class="cls-1" d="M128.37,92.81c-1.94,3.15-3.09,7-4.81,7.31-2.12.33-5.87-1.75-6.91-3.8a184.49,184.49,0,0,1-9.71-22.8c-1.26-3.61-.57-8,3.7-9.68s7.12,1.82,8.53,5C122.58,76.54,125.26,84.56,128.37,92.81Z"/><path class="cls-1" d="M174.56,93.17c1.29.79,5.4,1.91,6,4s-1.67,6-3.81,7.73c-8.2,6.53-18.15,8.28-28.33,8.44-1.54,0-3.75-1.88-4.45-3.43-.52-1.14.43-3.73,1.57-4.71C153.31,98.48,162.27,94.27,174.56,93.17Z"/><path class="cls-1" d="M110.94,111.66C99.46,110,89.48,107.14,81.77,99.47c-1.69-1.68-3-5.51-2.24-7.35s4.67-3.29,7-3c11.19,1.28,20.27,6.93,27.63,15.29a4.91,4.91,0,0,1,.32,4.51C113.68,110.28,111.78,111.05,110.94,111.66Z"/><path class="cls-1" d="M133.24,97.44c.85-11.71,4.22-20.9,11.21-28.31C146.28,67.19,150,67,152.79,66c.82,2.89,2.63,5.9,2.3,8.65-1.2,10-6.55,18.08-13.58,25-1.19,1.17-3.88,2.09-5.22,1.53C134.68,100.53,133.78,98.16,133.24,97.44Z"/><path class="cls-1" d="M131.3,139.63c0-2.38-.36-3.68.08-4.61.79-1.69,1.75-3.85,3.23-4.52,1.13-.51,3.68.52,4.72,1.66A44.14,44.14,0,0,1,151,159.21c.17,2.63-2.36,5.45-3.64,8.18-2.66-1.35-6.19-2-7.82-4.18A40.29,40.29,0,0,1,131.3,139.63Z"/><path class="cls-1" d="M124.86,134.33c-1.45,11.37-4.52,20.71-11.71,28-1.76,1.79-6.47,3.48-7.52,2.57-2-1.73-3.52-5.58-3.08-8.18a42.9,42.9,0,0,1,13.71-25c1.39-1.26,4.27-2.14,5.87-1.56S124.32,133.44,124.86,134.33Z"/><path class="cls-1" d="M173.42,142.22c-13-1.29-21.88-7.15-29.56-15.11-.9-.93-1.09-3.41-.5-4.64a5.16,5.16,0,0,1,3.93-2.5c11.13.6,21.28,4,29.23,12.15,1.54,1.58,2.67,5.1,1.95,6.92S174.48,141.62,173.42,142.22Z"/><path class="cls-1" d="M84.13,138.5c-2.38-1.5-6.21-2.6-6.76-4.6s1.42-5.83,3.42-7.41c8.55-6.72,18.67-9,29.39-8.27,1.31.09,3.31,1.61,3.57,2.79a5.79,5.79,0,0,1-1.36,4.85A50.38,50.38,0,0,1,84.13,138.5Z"/><path class="cls-1" d="M79.63,37.34C82.49,30.78,85,24.13,88.34,17.9c1-1.78,4.2-2.32,6.4-3.44.85,2.15,2.44,4.3,2.42,6.43C97.09,28.57,93.7,35.17,89,41c-1.36,1.7-3.72,2.6-5.63,3.86Z"/><path class="cls-1" d="M76.11,79.15c-2.75,6.08-5.37,12.63-8.72,18.79-.86,1.6-4.4,3.13-6,2.57S58.2,96.3,58.72,94.7a136.36,136.36,0,0,1,8-19.6c1-2,4.22-2.81,6.42-4.16Z"/><path class="cls-1" d="M61.32,61.2c.87.52,3.21,1.15,3.57,2.36s-.59,3.64-1.72,4.78A36,36,0,0,1,42.3,78.84c-2,.29-4.35-1.33-6.53-2.08.79-2.13,1-4.86,2.47-6.28C44.33,64.58,52.15,62.45,61.32,61.2Z"/><path class="cls-1" d="M95.71,55.61c-2.43-1.82-4.39-2.55-4.78-3.78s.44-3.64,1.49-4.24a193.57,193.57,0,0,1,20.29-10.71c1.86-.8,4.94,1.23,7.46,2-1.08,2.38-1.52,5.94-3.35,6.95C110,49.54,102.69,52.45,95.71,55.61Z"/><path class="cls-1" d="M75.6,38.41,72.48,45c-1.88-.89-4.65-1.27-5.49-2.75a179.41,179.41,0,0,1-10-20c-.67-1.62,1.18-4.3,1.88-6.5,2.28.82,5.71,1,6.64,2.57C69.35,24.86,72.41,31.87,75.6,38.41Z"/><path class="cls-1" d="M57.83,56c-6.18-2.56-12.73-4.81-18.75-8-2-1.09-2.73-4.66-4-7.09,2.5-.77,5.4-2.76,7.43-2.09A128.67,128.67,0,0,1,61.39,47c1.72.9,2.43,3.74,3.6,5.7Z"/><path class="cls-1" d="M138.47,116.13a9.63,9.63,0,0,1-10.18,9.22c-5.34-.38-9.18-5-8.82-10.59a9.53,9.53,0,1,1,19,1.37Z"/><path class="cls-1" d="M78.24,50.05a7.71,7.71,0,0,1,7.54,7.68c0,4.2-3.91,8.1-8,8-3.77-.13-7.65-4.11-7.66-7.86A8.11,8.11,0,0,1,78.24,50.05Z"/><path class="cls-1" d="M89.8,113.1c-7.18,3.15-14.47,2-19.32-2.62-2.35-2.25-2.72-4.15-.09-6.62,2.21-2.07,3.67-3.26,6.53-.66C80.77,106.71,85.19,109.61,89.8,113.1Z"/><path class="cls-1" d="M138.57,63.61c-.4,2.15-.32,2.84-.63,3.21-2.4,2.9-4.87,5.73-7.31,8.59-2.06-3.48-4.28-6.87-6-10.5-.28-.56,1.59-3.13,2.35-3.08C130.73,62.09,134.48,62.92,138.57,63.61Z"/><path class="cls-1" d="M96.78,83.54c-11.5.64-15.67-2.17-15.19-9,.1-1.3,1-3.12,2-3.61a4.36,4.36,0,0,1,4.06.64C90.63,75.05,93.26,78.86,96.78,83.54Z"/><path class="cls-1" d="M97.17,59.05c1.94,2.43,4.33,4.11,4.26,5.68-.09,2-2.14,4-3.35,6l-7.32-7Z"/></g></g></svg>